<?xml version="1.0" encoding="utf-8"?>
<!-- Generator: Adobe Illustrator 15.1.0, SVG Export Plug-In . SVG Version: 6.00 Build 0)  -->
<!DOCTYPE svg PUBLIC "-//W3C//DTD SVG 1.1//EN" "http://www.w3.org/Graphics/SVG/1.1/DTD/svg11.dtd">
<svg version="1.1" id="Layer_1" xmlns="http://www.w3.org/2000/svg" xmlns:xlink="http://www.w3.org/1999/xlink" x="0px" y="0px"
	 width="595.275px" height="841.89px" viewBox="0 0 595.275 841.89" enable-background="new 0 0 595.275 841.89"
	 xml:space="preserve">
<g>
	<g>
		
			<polygon fill-rule="evenodd" clip-rule="evenodd" fill="#0072BB" stroke="#0072BB" stroke-width="1.4497" stroke-miterlimit="2.6131" points="
			31.257,706.227 10.676,707 35.34,707 35.34,707 31.257,706.227 		"/>
		
			<polygon fill-rule="evenodd" clip-rule="evenodd" fill="#0072BB" stroke="#0072BB" stroke-width="1.4497" stroke-miterlimit="2.6131" points="
			564.218,706.063 560.272,707 584.576,707 584.576,707 564.218,706.063 		"/>
		
			<polygon fill-rule="evenodd" clip-rule="evenodd" fill="#0072BB" stroke="#0072BB" stroke-width="1.4497" stroke-miterlimit="2.6131" points="
			27.334,704.864 10.676,707 31.257,706.227 31.257,706.227 27.334,704.864 		"/>
		
			<polygon fill-rule="evenodd" clip-rule="evenodd" fill="#0072BB" stroke="#0072BB" stroke-width="1.4497" stroke-miterlimit="2.6131" points="
			568.006,704.588 564.218,706.063 584.576,707 584.576,707 568.006,704.588 		"/>
		
			<polygon fill-rule="evenodd" clip-rule="evenodd" fill="#0072BB" stroke="#0072BB" stroke-width="1.4497" stroke-miterlimit="2.6131" points="
			23.657,702.93 10.676,707 27.334,704.864 27.334,704.864 23.657,702.93 		"/>
		
			<polygon fill-rule="evenodd" clip-rule="evenodd" fill="#0072BB" stroke="#0072BB" stroke-width="1.4497" stroke-miterlimit="2.6131" points="
			571.546,702.614 568.006,704.588 584.576,707 584.576,707 571.546,702.614 		"/>
		
			<polygon fill-rule="evenodd" clip-rule="evenodd" fill="#0072BB" stroke="#0072BB" stroke-width="1.4497" stroke-miterlimit="2.6131" points="
			20.305,700.472 10.676,707 23.657,702.93 23.657,702.93 20.305,700.472 		"/>
		
			<polygon fill-rule="evenodd" clip-rule="evenodd" fill="#0072BB" stroke="#0072BB" stroke-width="1.4497" stroke-miterlimit="2.6131" points="
			574.783,700.17 571.546,702.614 584.576,707 584.576,707 574.783,700.17 		"/>
		
			<polygon fill-rule="evenodd" clip-rule="evenodd" fill="#0072BB" stroke="#0072BB" stroke-width="1.4497" stroke-miterlimit="2.6131" points="
			17.352,697.548 10.676,707 20.305,700.472 20.305,700.472 17.352,697.548 		"/>
		
			<polygon fill-rule="evenodd" clip-rule="evenodd" fill="#0072BB" stroke="#0072BB" stroke-width="1.4497" stroke-miterlimit="2.6131" points="
			577.668,697.307 574.783,700.17 584.576,707 584.576,707 577.668,697.307 		"/>
		
			<polygon fill-rule="evenodd" clip-rule="evenodd" fill="#0072BB" stroke="#0072BB" stroke-width="1.4497" stroke-miterlimit="2.6131" points="
			14.864,694.22 10.676,707 17.352,697.548 17.352,697.548 14.864,694.22 		"/>
		
			<polygon fill-rule="evenodd" clip-rule="evenodd" fill="#0072BB" stroke="#0072BB" stroke-width="1.4497" stroke-miterlimit="2.6131" points="
			580.133,694.081 577.668,697.307 584.576,707 584.576,707 580.133,694.081 		"/>
		
			<polygon fill-rule="evenodd" clip-rule="evenodd" fill="#0072BB" stroke="#0072BB" stroke-width="1.4497" stroke-miterlimit="2.6131" points="
			12.898,690.562 10.676,707 14.864,694.22 14.864,694.22 12.898,690.562 		"/>
		
			<polygon fill-rule="evenodd" clip-rule="evenodd" fill="#0072BB" stroke="#0072BB" stroke-width="1.4497" stroke-miterlimit="2.6131" points="
			582.125,690.541 580.133,694.081 584.576,707 584.576,707 582.125,690.541 		"/>
		
			<polygon fill-rule="evenodd" clip-rule="evenodd" fill="#0072BB" stroke="#0072BB" stroke-width="1.4497" stroke-miterlimit="2.6131" points="
			583.605,686.768 582.125,690.541 584.576,707 584.576,707 583.605,686.768 		"/>
		
			<polygon fill-rule="evenodd" clip-rule="evenodd" fill="#0072BB" stroke="#0072BB" stroke-width="1.4497" stroke-miterlimit="2.6131" points="
			11.489,686.655 10.676,707 12.898,690.562 12.898,690.562 11.489,686.655 		"/>
		
			<polygon fill-rule="evenodd" clip-rule="evenodd" fill="#0072BB" stroke="#0072BB" stroke-width="1.4497" stroke-miterlimit="2.6131" points="
			584.576,682.827 583.605,686.768 584.576,707 584.576,707 584.576,682.827 		"/>
		
			<polygon fill-rule="evenodd" clip-rule="evenodd" fill="#0072BB" stroke="#0072BB" stroke-width="1.4497" stroke-miterlimit="2.6131" points="
			10.676,682.585 10.676,707 11.489,686.655 11.489,686.655 10.676,682.585 		"/>
		
			<polygon fill-rule="evenodd" clip-rule="evenodd" fill="#0072BB" stroke="#0072BB" stroke-width="1.4497" stroke-miterlimit="2.6131" points="
			33.849,133.729 37.89,133.106 10.676,133.106 10.676,133.106 33.849,133.729 		"/>
		
			<polygon fill-rule="evenodd" clip-rule="evenodd" fill="#0072BB" stroke="#0072BB" stroke-width="1.4497" stroke-miterlimit="2.6131" points="
			10.676,133.106 29.933,134.895 33.849,133.729 33.849,133.729 10.676,133.106 		"/>
		
			<polygon fill-rule="evenodd" clip-rule="evenodd" fill="#0072BB" stroke="#0072BB" stroke-width="1.4497" stroke-miterlimit="2.6131" points="
			10.676,133.106 26.21,136.587 29.933,134.895 29.933,134.895 10.676,133.106 		"/>
		
			<polygon fill-rule="evenodd" clip-rule="evenodd" fill="#0072BB" stroke="#0072BB" stroke-width="1.4497" stroke-miterlimit="2.6131" points="
			10.676,133.106 22.753,138.766 26.21,136.587 26.21,136.587 10.676,133.106 		"/>
		
			<polygon fill-rule="evenodd" clip-rule="evenodd" fill="#0072BB" stroke="#0072BB" stroke-width="1.4497" stroke-miterlimit="2.6131" points="
			10.676,133.106 19.626,141.395 22.753,138.766 22.753,138.766 10.676,133.106 		"/>
		
			<polygon fill-rule="evenodd" clip-rule="evenodd" fill="#0072BB" stroke="#0072BB" stroke-width="1.4497" stroke-miterlimit="2.6131" points="
			10.676,133.106 16.884,144.426 19.626,141.395 19.626,141.395 10.676,133.106 		"/>
		
			<polygon fill-rule="evenodd" clip-rule="evenodd" fill="#0072BB" stroke="#0072BB" stroke-width="1.4497" stroke-miterlimit="2.6131" points="
			10.676,133.106 14.58,147.801 16.884,144.426 16.884,144.426 10.676,133.106 		"/>
		
			<polygon fill-rule="evenodd" clip-rule="evenodd" fill="#0072BB" stroke="#0072BB" stroke-width="1.4497" stroke-miterlimit="2.6131" points="
			10.676,133.106 12.754,151.462 14.58,147.801 14.58,147.801 10.676,133.106 		"/>
		
			<polygon fill-rule="evenodd" clip-rule="evenodd" fill="#0072BB" stroke="#0072BB" stroke-width="1.4497" stroke-miterlimit="2.6131" points="
			10.676,133.106 11.446,155.332 12.754,151.462 12.754,151.462 10.676,133.106 		"/>
		
			<polygon fill-rule="evenodd" clip-rule="evenodd" fill="#0072BB" stroke="#0072BB" stroke-width="1.4497" stroke-miterlimit="2.6131" points="
			10.676,133.106 10.676,159.347 11.446,155.332 11.446,155.332 10.676,133.106 		"/>
		
			<polygon fill-rule="evenodd" clip-rule="evenodd" fill="#0072BB" stroke="#0072BB" stroke-width="1.4497" stroke-miterlimit="2.6131" points="
			563.994,134.128 584.576,133.106 560.154,133.106 560.154,133.106 563.994,134.128 		"/>
		
			<polygon fill-rule="evenodd" clip-rule="evenodd" fill="#0072BB" stroke="#0072BB" stroke-width="1.4497" stroke-miterlimit="2.6131" points="
			584.576,133.106 563.994,134.128 567.693,135.633 567.693,135.633 584.576,133.106 		"/>
		
			<polygon fill-rule="evenodd" clip-rule="evenodd" fill="#0072BB" stroke="#0072BB" stroke-width="1.4497" stroke-miterlimit="2.6131" points="
			584.576,133.106 567.693,135.633 571.153,137.586 571.153,137.586 584.576,133.106 		"/>
		
			<polygon fill-rule="evenodd" clip-rule="evenodd" fill="#0072BB" stroke="#0072BB" stroke-width="1.4497" stroke-miterlimit="2.6131" points="
			584.576,133.106 571.153,137.586 574.352,139.969 574.352,139.969 584.576,133.106 		"/>
		
			<polygon fill-rule="evenodd" clip-rule="evenodd" fill="#0072BB" stroke="#0072BB" stroke-width="1.4497" stroke-miterlimit="2.6131" points="
			584.576,133.106 574.352,139.969 577.209,142.735 577.209,142.735 584.576,133.106 		"/>
		
			<polygon fill-rule="evenodd" clip-rule="evenodd" fill="#0072BB" stroke="#0072BB" stroke-width="1.4497" stroke-miterlimit="2.6131" points="
			584.576,133.106 577.209,142.735 579.7,145.838 579.7,145.838 584.576,133.106 		"/>
		
			<polygon fill-rule="evenodd" clip-rule="evenodd" fill="#0072BB" stroke="#0072BB" stroke-width="1.4497" stroke-miterlimit="2.6131" points="
			584.576,133.106 579.7,145.838 581.784,149.233 581.784,149.233 584.576,133.106 		"/>
		
			<polygon fill-rule="evenodd" clip-rule="evenodd" fill="#0072BB" stroke="#0072BB" stroke-width="1.4497" stroke-miterlimit="2.6131" points="
			584.576,133.106 581.784,149.233 583.409,152.864 583.409,152.864 584.576,133.106 		"/>
		
			<polygon fill-rule="evenodd" clip-rule="evenodd" fill="#0072BB" stroke="#0072BB" stroke-width="1.4497" stroke-miterlimit="2.6131" points="
			584.576,133.106 583.409,152.864 584.576,156.676 584.576,156.676 584.576,133.106 		"/>
		<polyline fill="none" stroke="#0072BB" stroke-width="1.9025" stroke-miterlimit="2.6131" points="10.676,133.106 
			584.576,133.106 584.576,707 10.676,707 10.676,133.106 		"/>
		<path fill-rule="evenodd" clip-rule="evenodd" fill="#0072BB" d="M38.401,147.123h519.065c7.329,0,13.32,5.981,13.32,13.292
			v519.79c0,7.315-5.991,13.293-13.32,13.293H38.401c-7.321,0-13.312-5.978-13.312-13.293v-519.79
			C25.089,153.104,31.08,147.123,38.401,147.123L38.401,147.123z"/>
		<g>
			<path fill-rule="evenodd" clip-rule="evenodd" fill="#FFFFFF" d="M372.318,171.528c19.046,0,34.563,15.527,34.563,34.567
				c0,19.035-15.517,34.562-34.563,34.562c-19.032,0-34.56-15.527-34.56-34.562C337.759,187.055,353.286,171.528,372.318,171.528
				L372.318,171.528z"/>
			<path fill-rule="evenodd" clip-rule="evenodd" fill="#FFFFFF" d="M353.112,240.951c7.729,4.364,23.221,6.503,34.434,2.604
				l-10.36,180.424H256.335l-79.372,113.679l-71.018-50.284l19.802-28.402l42.777,29.792l69.746-99.436l106.144-0.167l1.916-34.81
				l-90.39-0.011l0.017-34.945l92.553,0.122C350.043,293.058,351.577,267.411,353.112,240.951L353.112,240.951z"/>
			<path fill-rule="evenodd" clip-rule="evenodd" fill="#FFFFFF" d="M399.716,336.292l-2.479,40.748
				c2.423,1.848,5.191,3.697,7.614,5.545c49.846,46.348,47.953,135.197-31.482,173.686c-20.371,9.183-95.276,22.352-135.258-55.17
				l-5.061-13.457l-24.203,34.008c1.711,2.815,3.729,5.63,5.439,8.45c34.443,54.575,91.866,82.193,162.761,61.71
				c51.162-18.485,99.878-63.625,95.897-145.53c-3.38-29.41-16.565-73.211-61.925-102.924L399.716,336.292L399.716,336.292z"/>
		</g>
	</g>
	<rect x="41.54" y="596.858" fill-rule="evenodd" clip-rule="evenodd" fill="#FFFFFF" width="513.392" height="81.744"/>
</g>
</svg>
