<?xml version="1.0" encoding="utf-8"?>
<!-- Generator: Adobe Illustrator 15.1.0, SVG Export Plug-In . SVG Version: 6.00 Build 0)  -->
<!DOCTYPE svg PUBLIC "-//W3C//DTD SVG 1.1//EN" "http://www.w3.org/Graphics/SVG/1.1/DTD/svg11.dtd">
<svg version="1.1" id="Layer_1" xmlns="http://www.w3.org/2000/svg" xmlns:xlink="http://www.w3.org/1999/xlink" x="0px" y="0px"
	 width="595px" height="842px" viewBox="0 0 595 842" enable-background="new 0 0 595 842" xml:space="preserve">
<rect x="33.719" y="132.45" fill-rule="evenodd" clip-rule="evenodd" fill="#FFFFFF" width="539.966" height="539.967"/>
<rect x="33.719" y="132.45" fill="none" stroke="#0072BB" stroke-width="1.001" stroke-miterlimit="22.926" width="539.966" height="539.967"/>
<path fill-rule="evenodd" clip-rule="evenodd" fill="#0072BB" d="M33.619,132.336l27.186,0.04l-5.173,0.585
	c-10.686,2.704-17.834,9.594-21.205,20.186l-0.808,4.291V132.336"/>
<path fill-rule="evenodd" clip-rule="evenodd" fill="#0072BB" d="M573.744,132.454l-27.068-0.078l5.057,0.703
	c10.685,2.704,17.833,9.594,21.205,20.186l0.807,4.291V132.454"/>
<path fill-rule="evenodd" clip-rule="evenodd" fill="#0072BB" d="M573.704,672.441l-27.188-0.04l5.175-0.585
	c10.686-2.704,17.834-9.594,21.205-20.186l0.808-4.292V672.441"/>
<path fill-rule="evenodd" clip-rule="evenodd" fill="#0072BB" d="M33.782,672.391l27.187,0.019l-5.174-0.644
	c-10.686-2.702-17.833-9.593-21.205-20.185l-0.808-4.292V672.391"/>
<path fill-rule="evenodd" clip-rule="evenodd" fill="#0072BB" d="M59.803,145.635H548.19c6.887,0,12.521,5.63,12.521,12.511v489.059
	c0,6.881-5.635,12.511-12.521,12.511H59.803c-6.888,0-12.523-5.63-12.523-12.511V158.146
	C47.28,151.265,52.915,145.635,59.803,145.635"/>
<path fill-rule="evenodd" clip-rule="evenodd" fill="#FFFFFF" d="M217.958,304.348c3.779-3.308,6.336-4.987,12.761-6.768
	c8.903-2.716,21.678-2.825,34.731,0.534c18.523,1.959,37.581,3.919,56.104,5.878c26.538-0.356,35.979,1.959,45.418,13.358
	c8.905,11.755,17.812,23.51,26.717,35.266c14.782,7.302,27.429,19.414,13.893,21.907c-11.755,5.7-19.236-10.508-27.785-14.961
	c-8.549-8.193-14.961-14.783-23.511-22.976c-11.221-2.85-20.991-5.496-34.349-3.003l-16.616-11.094
	c-3.028,1.603-4.555,1.273-1.984,6.184c23.154,14.427,30.863,31.423,46.537,47.988c10.687,11.755,16.565,24.044,17.633,40.074
	c17.989,20.839,36.513,40.61,54.502,61.448c26.183,21.374,48.624,49.159,73.203,73.204c8.193,5.877,21.73,12.824,16.565,20.839
	c-1.069,1.959-2.139,3.918-3.206,5.877l18.7,2.139v14.427H145.76c-32.772-1.247-31.347-13.715-40.609-22.977l45.418,9.084
	c36.513-0.179,73.025-0.356,109.538-0.534c12.289-2.494,14.427-10.865,16.03-18.702c-3.563-16.921-7.125-33.841-10.687-50.761
	c-13.002-24.937-1.425-25.292,1.069-34.732c7.658-17.277,19.592-34.019,29.388-50.227c10.508,9.262,21.017,18.522,31.524,27.784
	c-9.796,11.577-19.592,23.154-29.388,34.732c-5.521,9.974-4.631,19.414-1.068,36.334c1.958,13.537,1.781,28.141,3.74,42.212
	c4.987,4.275-0.178,10.153,1.604,14.427c57.691,0.35,118.729-0.905,176.423-0.558c3.436-1.799,6.309-3.472,10.026-5.18
	c3.955-1.817,1.654-2.488-1.575-4.696c-28.349-19.38-55.538-40.403-83.308-60.605c-6.456-5.784-12.912-11.569-19.367-17.354
	c-51.025-43.714-102.052-87.429-153.078-131.143c-10.032-14.979-18.996-8.584-30.096-6.464c-5.948,0.955-11.36,2.979-17.307,3.934
	c-8.344,4.98-15.619,1.944-22.36-2.159c-9.723-5.137-20.281-10.278-32.089-15.416c-7.011-8.253-18.798-2.701-24.461-6.629
	c-4.404-3.054-6.622-8.275-9.191-12.096c0.647-8.983,9.843-7.279,15.299-5.575c6.142,1.713,12.283,3.426,18.424,5.14
	c9.958,2.636,20.221,4.152,30.179,6.788c9.086,0.794,18.047-0.897,25.922-5.479C196.557,317.535,207.431,310.188,217.958,304.348"/>
<path fill-rule="evenodd" clip-rule="evenodd" fill="#FFFFFF" d="M163.306,257.408c-3.234,9.942-1.931,19.552,3.947,26.45
	c5.044,5.92,4.19,12.137,16.804,20.041c7.841,4.913,22.877-1.468,32.222-12.118c1.809-2.062,4.11-4.689,4.8-7.06
	c2.504-8.612,1.079-24.167-17.109-38.605C190.632,235.529,166.541,247.465,163.306,257.408"/>
<polyline fill-rule="evenodd" clip-rule="evenodd" fill="#FFFFFF" points="114.769,334.983 126.524,339.257 271.328,598.942 
	271.328,606.423 264.916,602.148 114.769,334.983 "/>
<polyline fill-rule="evenodd" clip-rule="evenodd" fill="#FFFFFF" points="389.961,364.08 396.364,358.455 528.688,429.619 
	528.581,437.174 389.961,364.08 "/>
</svg>
