<?xml version="1.0" encoding="utf-8"?>
<!-- Generator: Adobe Illustrator 15.1.0, SVG Export Plug-In . SVG Version: 6.00 Build 0)  -->
<!DOCTYPE svg PUBLIC "-//W3C//DTD SVG 1.1//EN" "http://www.w3.org/Graphics/SVG/1.1/DTD/svg11.dtd">
<svg version="1.1" id="Layer_1" xmlns="http://www.w3.org/2000/svg" xmlns:xlink="http://www.w3.org/1999/xlink" x="0px" y="0px"
	 width="595px" height="842px" viewBox="0 0 595 842" enable-background="new 0 0 595 842" xml:space="preserve">
<rect x="33.719" y="132.45" fill-rule="evenodd" clip-rule="evenodd" fill="#FFFFFF" width="539.966" height="539.967"/>
<rect x="33.719" y="132.45" fill="none" stroke="#0072BB" stroke-width="1.001" stroke-miterlimit="22.926" width="539.966" height="539.967"/>
<path fill-rule="evenodd" clip-rule="evenodd" fill="#0072BB" d="M33.619,132.336l27.186,0.04l-5.173,0.585
	c-10.686,2.704-17.834,9.594-21.205,20.186l-0.808,4.291V132.336"/>
<path fill-rule="evenodd" clip-rule="evenodd" fill="#0072BB" d="M573.744,132.454l-27.068-0.078l5.057,0.703
	c10.685,2.704,17.833,9.594,21.205,20.186l0.807,4.291V132.454"/>
<path fill-rule="evenodd" clip-rule="evenodd" fill="#0072BB" d="M573.704,672.441l-27.188-0.04l5.175-0.585
	c10.686-2.704,17.834-9.594,21.205-20.186l0.808-4.292V672.441"/>
<path fill-rule="evenodd" clip-rule="evenodd" fill="#0072BB" d="M33.782,672.391l27.187,0.019l-5.174-0.644
	c-10.686-2.702-17.833-9.593-21.205-20.185l-0.808-4.292V672.391"/>
<path fill-rule="evenodd" clip-rule="evenodd" fill="#0072BB" d="M61.338,145.635h488.387c6.887,0,12.521,5.63,12.521,12.511
	v489.059c0,6.881-5.635,12.511-12.521,12.511H61.338c-6.888,0-12.523-5.63-12.523-12.511V158.146
	C48.815,151.265,54.45,145.635,61.338,145.635"/>
<g>
	<polygon fill-rule="evenodd" clip-rule="evenodd" fill="#FFFFFF" stroke="#FFFFFF" stroke-width="0.9894" points="199.459,414.573 
		368.693,414.573 368.693,414.573 368.693,537.589 368.693,537.589 374.063,564.444 389.556,586.985 412.739,602.211 
		439.949,607.367 439.949,607.367 439.949,616.12 439.949,616.12 172.616,616.12 172.616,616.12 172.616,607.367 172.616,607.367 
		199.824,601.851 222.764,586.506 238.015,563.726 243.384,536.866 243.384,536.866 243.993,462.772 243.993,462.772 240.7,445.866 
		231.06,431.718 216.541,422.245 199.459,419.01 199.459,419.01 199.459,414.573 199.459,414.573 199.459,414.573 	"/>
	<path fill-rule="evenodd" clip-rule="evenodd" fill="#FFFFFF" d="M305.611,395.989c36.36,0,66.009-29.135,66.009-64.863
		c0-35.729-29.648-64.745-66.009-64.745c-36.116,0-65.766,29.016-65.766,64.745C239.846,366.854,269.496,395.989,305.611,395.989z"
		/>
</g>
</svg>
