<?xml version="1.0" encoding="utf-8"?>
<!-- Generator: Adobe Illustrator 15.1.0, SVG Export Plug-In . SVG Version: 6.00 Build 0)  -->
<!DOCTYPE svg PUBLIC "-//W3C//DTD SVG 1.1//EN" "http://www.w3.org/Graphics/SVG/1.1/DTD/svg11.dtd">
<svg version="1.1" id="Layer_1" xmlns="http://www.w3.org/2000/svg" xmlns:xlink="http://www.w3.org/1999/xlink" x="0px" y="0px"
	 width="595px" height="842px" viewBox="0 0 595 842" enable-background="new 0 0 595 842" xml:space="preserve">
<rect x="33.719" y="132.45" fill-rule="evenodd" clip-rule="evenodd" fill="#FFFFFF" width="539.966" height="539.967"/>
<rect x="33.719" y="132.45" fill="none" stroke="#0072BB" stroke-width="1.001" stroke-miterlimit="22.926" width="539.966" height="539.967"/>
<path fill-rule="evenodd" clip-rule="evenodd" fill="#0072BB" d="M33.619,132.336l27.186,0.04l-5.173,0.585
	c-10.686,2.704-17.834,9.594-21.205,20.186l-0.808,4.291V132.336"/>
<path fill-rule="evenodd" clip-rule="evenodd" fill="#0072BB" d="M573.744,132.454l-27.068-0.078l5.057,0.703
	c10.685,2.704,17.833,9.594,21.205,20.186l0.807,4.291V132.454"/>
<path fill-rule="evenodd" clip-rule="evenodd" fill="#0072BB" d="M573.704,672.441l-27.188-0.04l5.175-0.585
	c10.686-2.704,17.834-9.594,21.205-20.186l0.808-4.292V672.441"/>
<path fill-rule="evenodd" clip-rule="evenodd" fill="#0072BB" d="M33.782,672.391l27.187,0.019l-5.174-0.644
	c-10.686-2.702-17.833-9.593-21.205-20.185l-0.808-4.292V672.391"/>
<path fill-rule="evenodd" clip-rule="evenodd" fill="#0072BB" d="M59.803,145.635H548.19c6.887,0,12.521,5.63,12.521,12.511v489.059
	c0,6.881-5.635,12.511-12.521,12.511H59.803c-6.888,0-12.523-5.63-12.523-12.511V158.146
	C47.28,151.265,52.915,145.635,59.803,145.635"/>
<polyline fill-rule="evenodd" clip-rule="evenodd" fill="#FFFFFF" points="121.189,384.17 158.675,628.265 366.155,628.265 
	402.769,388.529 361.261,388.529 333.028,591.651 190.059,591.651 165.649,385.042 121.189,384.17 "/>
<path fill-rule="evenodd" clip-rule="evenodd" fill="#FFFFFF" d="M169.421,424.272c9.976-0.047,16.543-1.074,27.174,0.153
	c1.795,1.646,5.652,3.139,7.373,4.484c32.826,25.678,52.819-1.039,79.358-7.922c1.769-0.458,4.967-0.484,6.8-0.745
	c18.876,3.796,29.807,14.254,46.392,17.414c9.314-3.16,15.026-8.231,21.067-14.257l-4.479,33.764
	c-6.728-0.744-9.526,4.883-17.563,4.776c-17.563-2.483-28.906-19.301-47.124-18.28c-20.192,2.731-23.36,15.975-54.684,20.938
	c-20.086-1.377-29.368-11.673-41.596-19.738c-6.786-1.129-13.572-1.621-20.357-0.521
	C170.995,437.65,170.208,430.961,169.421,424.272"/>
<path fill-rule="evenodd" clip-rule="evenodd" fill="#FFFFFF" d="M174.384,465.68c7.353-0.032,9.639-0.245,14.731,0.166
	c1.697,0.139,5.433,0,8.045,1.342c37.653,35.113,56.524-0.223,86.454-5.563c18.555,3.796,30.674,14.919,46.977,18.079
	c9.156-1.567,13.807,0.37,19.744-5.657l-3.438,27.395c-6.613-0.744-9.363,1.378-17.264,1.271
	c-17.264-2.484-28.414-18.027-46.322-17.007c-19.849,2.732-22.963,15.977-53.753,20.938c-19.745-1.377-28.869-11.673-40.889-19.738
	c-6.671-1.129-5.939-1.621-12.608-0.521C175.287,479.696,175.157,472.37,174.384,465.68"/>
<path fill-rule="evenodd" clip-rule="evenodd" fill="#FFFFFF" d="M418.461,257.765h84.562v65.382h-56.665
	c-6.427,22.012-29.416,28.735-47.946,28.768c-33.625,1.615-43.678-13.652-54.05-29.237h-27.896
	c-26.472,15.647-28.098,36.709-28.769,57.134l-0.402,12.204h-63.941l-0.469-28.533c0.374-81.264,79.426-103.282,94.452-105.869
	l59.987-0.545l0.368-26.439l-24.532,0.242c-39.172-20.465-18.462-56.539,0.336-58.531l89.073-0.174
	c24.351,10.136,32.138,40.02,0.429,57.8l-24.384,0.096L418.461,257.765"/>
</svg>
