<?xml version="1.0" encoding="utf-8"?>
<!-- Generator: Adobe Illustrator 15.1.0, SVG Export Plug-In . SVG Version: 6.00 Build 0)  -->
<!DOCTYPE svg PUBLIC "-//W3C//DTD SVG 1.1//EN" "http://www.w3.org/Graphics/SVG/1.1/DTD/svg11.dtd">
<svg version="1.1" id="Layer_1" xmlns="http://www.w3.org/2000/svg" xmlns:xlink="http://www.w3.org/1999/xlink" x="0px" y="0px"
	 width="595px" height="842px" viewBox="0 0 595 842" enable-background="new 0 0 595 842" xml:space="preserve">
<rect x="33.719" y="132.45" fill-rule="evenodd" clip-rule="evenodd" fill="#FFFFFF" width="539.966" height="539.967"/>
<rect x="33.719" y="132.45" fill="none" stroke="#0072BB" stroke-width="1.001" stroke-miterlimit="22.926" width="539.966" height="539.967"/>
<path fill-rule="evenodd" clip-rule="evenodd" fill="#0072BB" d="M33.619,132.336l27.186,0.04l-5.173,0.585
	c-10.686,2.704-17.834,9.594-21.205,20.186l-0.808,4.291V132.336"/>
<path fill-rule="evenodd" clip-rule="evenodd" fill="#0072BB" d="M573.744,132.454l-27.068-0.078l5.057,0.703
	c10.685,2.704,17.833,9.594,21.205,20.186l0.807,4.291V132.454"/>
<path fill-rule="evenodd" clip-rule="evenodd" fill="#0072BB" d="M573.704,672.441l-27.188-0.04l5.175-0.585
	c10.686-2.704,17.834-9.594,21.205-20.186l0.808-4.292V672.441"/>
<path fill-rule="evenodd" clip-rule="evenodd" fill="#0072BB" d="M33.782,672.391l27.187,0.019l-5.174-0.644
	c-10.686-2.702-17.833-9.593-21.205-20.185l-0.808-4.292V672.391"/>
<path fill-rule="evenodd" clip-rule="evenodd" fill="#0072BB" d="M59.803,145.635H548.19c6.887,0,12.521,5.63,12.521,12.511v489.059
	c0,6.881-5.635,12.511-12.521,12.511H59.803c-6.888,0-12.523-5.63-12.523-12.511V158.146
	C47.28,151.265,52.915,145.635,59.803,145.635"/>
<path fill-rule="evenodd" clip-rule="evenodd" fill="#FFFFFF" d="M152.528,397.194l292.102,0.183l0.183,176.932l-292.659,0.377
	L152.528,397.194 M299.363,207.179L87.828,377.483l0.241,19.506l41.967,0.166l-0.309,199.716l336.997,0.037l0.162-200.006
	l42.748,0.017l-0.449-19.663L299.363,207.179z"/>
<path fill-rule="evenodd" clip-rule="evenodd" fill="#FFFFFF" d="M293.177,415.925l-57.584-0.097
	c-0.141,43.772,1.629,85.42,17.424,110.281c3.046,6.657-0.071,5.879-3.612,6.588l-59.072,0.212
	c5.313,14.591,14.662,27.693,45.26,28.474c39.323-0.006,78.646-0.01,117.968-0.015c40.458-1.13,42.568-22.393,44.869-28.699
	c-19.552-0.037-39.104-0.075-58.657-0.113c-6.667-0.243-4.132-3.364-3.896-5.909c18.414-26.262,17.079-71.889,17.277-110.996
	L293.177,415.925"/>
<path fill-rule="evenodd" clip-rule="evenodd" fill="#FFFFFF" d="M352.219,443.316l25.885,0.19
	c9.012,0.192,12.654,0.192,13.23,12.655c-4.922,32.468-9.268,49.021-43.525,56.563c-2.236,1.022-4.474,2.237-6.711,4.219
	l6.711-23.394c1.854,1.215,3.707,0.704,5.561,0.192c17.193-2.365,20.771-17.959,21.667-30.678c-0.512-2.621-2.365-3.707-5.562-4.41
	c-7.925-0.575-14.699-0.384-18.022,5.752L352.219,443.316"/>
</svg>
