<?xml version="1.0" encoding="utf-8"?>
<!-- Generator: Adobe Illustrator 15.1.0, SVG Export Plug-In . SVG Version: 6.00 Build 0)  -->
<!DOCTYPE svg PUBLIC "-//W3C//DTD SVG 1.1//EN" "http://www.w3.org/Graphics/SVG/1.1/DTD/svg11.dtd">
<svg version="1.1" id="Layer_1" xmlns="http://www.w3.org/2000/svg" xmlns:xlink="http://www.w3.org/1999/xlink" x="0px" y="0px"
	 width="595px" height="842px" viewBox="0 0 595 842" enable-background="new 0 0 595 842" xml:space="preserve">
<rect x="33.719" y="132.45" fill-rule="evenodd" clip-rule="evenodd" fill="#FFFFFF" width="539.966" height="539.967"/>
<rect x="33.719" y="132.45" fill="none" stroke="#0072BB" stroke-width="1.001" stroke-miterlimit="22.926" width="539.966" height="539.967"/>
<path fill-rule="evenodd" clip-rule="evenodd" fill="#0072BB" d="M33.619,132.336l27.186,0.04l-5.173,0.585
	c-10.686,2.704-17.834,9.594-21.205,20.186l-0.808,4.291V132.336"/>
<path fill-rule="evenodd" clip-rule="evenodd" fill="#0072BB" d="M573.744,132.454l-27.068-0.078l5.057,0.703
	c10.685,2.704,17.833,9.594,21.205,20.186l0.807,4.291V132.454"/>
<path fill-rule="evenodd" clip-rule="evenodd" fill="#0072BB" d="M573.704,672.441l-27.188-0.04l5.175-0.585
	c10.686-2.704,17.834-9.594,21.205-20.186l0.808-4.292V672.441"/>
<path fill-rule="evenodd" clip-rule="evenodd" fill="#0072BB" d="M33.782,672.391l27.187,0.019l-5.174-0.644
	c-10.686-2.702-17.833-9.593-21.205-20.185l-0.808-4.292V672.391"/>
<path fill-rule="evenodd" clip-rule="evenodd" fill="#0072BB" d="M59.803,145.635H548.19c6.887,0,12.521,5.63,12.521,12.511v489.059
	c0,6.881-5.635,12.511-12.521,12.511H59.803c-6.888,0-12.523-5.63-12.523-12.511V158.146
	C47.28,151.265,52.915,145.635,59.803,145.635"/>
<path fill-rule="evenodd" clip-rule="evenodd" fill="#FFFFFF" d="M300.114,253.891l-117.226-0.198
	c-0.288,89.109,3.317,173.892,35.471,224.503c6.2,13.553-0.144,11.967-7.354,13.409l-120.254,0.433
	c10.815,29.703,29.848,56.377,92.137,57.964c80.05-0.01,160.1-0.021,240.149-0.031c82.362-2.299,86.657-45.583,91.342-58.421
	c-39.803-0.077-79.606-0.155-119.411-0.231c-13.573-0.497-8.41-6.85-7.93-12.03c37.486-53.46,34.767-146.344,35.172-225.956
	L300.114,253.891"/>
<path fill-rule="evenodd" clip-rule="evenodd" fill="#FFFFFF" d="M420.305,309.65L473,310.04
	c18.345,0.391,25.762,0.391,26.933,25.762c-10.019,66.096-18.865,99.795-88.605,115.148c-4.553,2.082-9.107,4.554-13.661,8.587
	l13.661-47.62c3.773,2.472,7.547,1.431,11.32,0.39c35-4.814,42.285-36.561,44.106-62.453c-1.04-5.334-4.813-7.546-11.319-8.977
	c-16.134-1.171-29.926-0.781-36.69,11.71L420.305,309.65"/>
</svg>
