<?xml version="1.0" encoding="utf-8"?>
<!-- Generator: Adobe Illustrator 15.1.0, SVG Export Plug-In . SVG Version: 6.00 Build 0)  -->
<!DOCTYPE svg PUBLIC "-//W3C//DTD SVG 1.1//EN" "http://www.w3.org/Graphics/SVG/1.1/DTD/svg11.dtd">
<svg version="1.1" id="Layer_1" xmlns="http://www.w3.org/2000/svg" xmlns:xlink="http://www.w3.org/1999/xlink" x="0px" y="0px"
	 width="595px" height="842px" viewBox="0 0 595 842" enable-background="new 0 0 595 842" xml:space="preserve">
<rect x="33.719" y="132.45" fill-rule="evenodd" clip-rule="evenodd" fill="#FFFFFF" width="539.966" height="539.967"/>
<rect x="33.719" y="132.45" fill="none" stroke="#0072BB" stroke-width="1.001" stroke-miterlimit="22.926" width="539.966" height="539.967"/>
<path fill-rule="evenodd" clip-rule="evenodd" fill="#0072BB" d="M33.619,132.336l27.186,0.04l-5.173,0.585
	c-10.686,2.704-17.834,9.594-21.205,20.186l-0.808,4.291V132.336"/>
<path fill-rule="evenodd" clip-rule="evenodd" fill="#0072BB" d="M573.744,132.454l-27.068-0.078l5.057,0.703
	c10.685,2.704,17.833,9.594,21.205,20.186l0.807,4.291V132.454"/>
<path fill-rule="evenodd" clip-rule="evenodd" fill="#0072BB" d="M573.704,672.441l-27.188-0.04l5.175-0.585
	c10.686-2.704,17.834-9.594,21.205-20.186l0.808-4.292V672.441"/>
<path fill-rule="evenodd" clip-rule="evenodd" fill="#0072BB" d="M33.782,672.391l27.187,0.019l-5.174-0.644
	c-10.686-2.702-17.833-9.593-21.205-20.185l-0.808-4.292V672.391"/>
<path fill-rule="evenodd" clip-rule="evenodd" fill="#0072BB" d="M59.803,145.635H548.19c6.887,0,12.521,5.63,12.521,12.511v489.059
	c0,6.881-5.635,12.511-12.521,12.511H59.803c-6.888,0-12.523-5.63-12.523-12.511V158.146
	C47.28,151.265,52.915,145.635,59.803,145.635"/>
<rect x="88.379" y="582.251" fill="#FFFFFF" width="429.286" height="28.941"/>
<polyline fill-rule="evenodd" clip-rule="evenodd" fill="#FFFFFF" points="178.973,217.852 425.612,217.852 395.694,310.245 
	389.141,310.245 389.141,248.391 216.192,248.65 215.934,309.986 207.573,310.504 178.973,217.852 "/>
<path fill-rule="evenodd" clip-rule="evenodd" fill="#FFFFFF" d="M302.66,344.498c1.2-3.257,2.605-5.946,4.216-8.089
	c1.593-2.142,3.821-3.889,6.666-5.243c2.844-1.354,6.186-2.04,9.991-2.04c6.288,0,11.564,1.56,15.833,4.696
	c4.266,3.137,6.408,6.973,6.408,11.515c0,4.096-1.046,7.814-3.136,11.173c-2.091,3.376-5.638,7.351-10.624,11.977
	c-6.649,6.188-11.053,10.436-13.194,12.733c-2.143,2.279-4.559,5.312-7.231,9.066c-2.674,3.735-4.422,6.424-5.227,8.019
	c-0.736,1.405-1.371,2.278-1.903,2.587c-0.53,0.325-1.146,0.48-1.85,0.48c-0.738,0-1.371-0.189-1.886-0.548
	c-0.529-0.378-1.112-1.218-1.782-2.519c-0.84-1.595-2.587-4.267-5.243-8.002c-2.673-3.736-5.089-6.769-7.265-9.083
	c-2.177-2.33-6.58-6.58-13.195-12.733c-4.764-4.421-8.243-8.31-10.454-11.703c-2.21-3.376-3.306-7.06-3.306-11.036
	c0-4.917,2.159-8.928,6.494-11.994c4.336-3.085,9.58-4.628,15.749-4.628c3.804,0,7.127,0.669,9.955,2.005
	c2.828,1.336,5.055,3.068,6.683,5.193C299.987,338.449,301.41,341.174,302.66,344.498 M223.436,256.669h157.967v318.347H223.436
	V256.669z"/>
</svg>
