<?xml version="1.0" encoding="utf-8"?>
<!-- Generator: Adobe Illustrator 15.1.0, SVG Export Plug-In . SVG Version: 6.00 Build 0)  -->
<!DOCTYPE svg PUBLIC "-//W3C//DTD SVG 1.1//EN" "http://www.w3.org/Graphics/SVG/1.1/DTD/svg11.dtd">
<svg version="1.1" id="Layer_1" xmlns="http://www.w3.org/2000/svg" xmlns:xlink="http://www.w3.org/1999/xlink" x="0px" y="0px"
	 width="595px" height="842px" viewBox="0 0 595 842" enable-background="new 0 0 595 842" xml:space="preserve">
<rect x="33.719" y="132.45" fill-rule="evenodd" clip-rule="evenodd" fill="#FFFFFF" width="539.966" height="539.967"/>
<rect x="33.719" y="132.45" fill="none" stroke="#0072BB" stroke-width="1.001" stroke-miterlimit="22.926" width="539.966" height="539.967"/>
<path fill-rule="evenodd" clip-rule="evenodd" fill="#0072BB" d="M33.619,132.336l27.186,0.04l-5.173,0.585
	c-10.686,2.704-17.834,9.594-21.205,20.186l-0.808,4.291V132.336"/>
<path fill-rule="evenodd" clip-rule="evenodd" fill="#0072BB" d="M573.744,132.454l-27.068-0.078l5.057,0.703
	c10.685,2.704,17.833,9.594,21.205,20.186l0.807,4.291V132.454"/>
<path fill-rule="evenodd" clip-rule="evenodd" fill="#0072BB" d="M573.704,672.441l-27.188-0.04l5.175-0.585
	c10.686-2.704,17.834-9.594,21.205-20.186l0.808-4.292V672.441"/>
<path fill-rule="evenodd" clip-rule="evenodd" fill="#0072BB" d="M33.782,672.391l27.187,0.019l-5.174-0.644
	c-10.686-2.702-17.833-9.593-21.205-20.185l-0.808-4.292V672.391"/>
<path fill-rule="evenodd" clip-rule="evenodd" fill="#0072BB" d="M61.338,145.635h488.387c6.887,0,12.521,5.63,12.521,12.511
	v489.059c0,6.881-5.635,12.511-12.521,12.511H61.338c-6.888,0-12.523-5.63-12.523-12.511V158.146
	C48.815,151.265,54.45,145.635,61.338,145.635"/>
<polyline fill-rule="evenodd" clip-rule="evenodd" fill="#FFFFFF" points="137.567,614.634 137.567,254.564 88.172,244.26 
	95.934,208.436 521.139,298.101 513.718,333.926 468.226,325.376 468.226,613.106 453.563,613.106 453.563,321.912 153.695,258.381 
	153.695,614.634 "/>
<g>
	<path fill-rule="evenodd" clip-rule="evenodd" fill="#FFFFFF" d="M281.453,571.774l-23.157-1.559
		c-23.833-26.486-47.314-56.206-39.759-79.454c9.694-28.125,29.969-39.749,50.244-55.9c20.323-23.194,29.362-35.386,34.516-68.932
		c4.712,7.047,9.422,14.098,14.129,21.146c18.109,28.125-1.163,40.396-13.384,55.255c-29.643,28.91-44.477,48.764-42.382,63.438
		c6.026,12.978,12.403,21.104,22.307,27.286c-1.534-20.911-4.125-34.378,13.384-55.935c11.647-13.872,31.057-22.241,34.593-39.672
		c0.25-5.229,3.337-11.032,3.585-16.261c8.196,7.698,21.315,24.054,9.763,43.399c-10.204,19.479-23.299,39.797-28.483,55.222
		c3.401,7.817,1.867,9.487,8.092,14.394c10.422-19.606,23.311-30.479,37.606-45.556c6.734-14.942,4.18-27.793,4.033-39.1
		c37.213,27.065,31.046,48.631,27.701,62.756l-37.408,56.906l-11.711,12.979l-19.637-1.932l-7.938-2.283l-7.842-1.158l-10.771,4.136
		l-6.781-4.008L281.453,571.774"/>
	<path fill-rule="evenodd" clip-rule="evenodd" fill="#FFFFFF" d="M226.841,571.951l28.817-4.788l14.675,1.147l8.431,0.286
		l16.861,8.882l12.492-4.299l16.237,4.299l18.732,0.573l2.498-1.435l40.781,4.056c-21.733,4.646-15.928,30.606-7.376,33.459
		l-107.804-10.886l43.284-15.564c-1.052-0.929,5.954-6.168-10.546,0.299l-68.099,23.848
		C243.685,609.353,255.556,580.589,226.841,571.951"/>
	<path fill-rule="evenodd" clip-rule="evenodd" fill="#FFFFFF" d="M389.806,583.712c6.647,0.41,11.544,7.931,10.902,16.745
		c-0.641,8.814-6.587,15.673-13.233,15.265c-6.647-0.407-11.545-7.928-10.902-16.744
		C377.213,590.164,383.157,583.307,389.806,583.712"/>
	<path fill-rule="evenodd" clip-rule="evenodd" fill="#FFFFFF" d="M223.924,576.068c8.331,0,15.126,8.075,15.126,17.974
		c0,9.897-6.795,17.972-15.126,17.972c-8.333,0-15.126-8.074-15.126-17.972C208.797,584.144,215.591,576.068,223.924,576.068"/>
</g>
<polyline fill-rule="evenodd" clip-rule="evenodd" fill="#FFFFFF" points="83.425,206.621 85,198.748 534.029,293.115 
	530.881,302.561 "/>
</svg>
