<?xml version="1.0" encoding="utf-8"?>
<!-- Generator: Adobe Illustrator 15.1.0, SVG Export Plug-In . SVG Version: 6.00 Build 0)  -->
<!DOCTYPE svg PUBLIC "-//W3C//DTD SVG 1.1//EN" "http://www.w3.org/Graphics/SVG/1.1/DTD/svg11.dtd">
<svg version="1.1" id="Layer_1" xmlns="http://www.w3.org/2000/svg" xmlns:xlink="http://www.w3.org/1999/xlink" x="0px" y="0px"
	 width="595px" height="842px" viewBox="0 0 595 842" enable-background="new 0 0 595 842" xml:space="preserve">
<rect x="33.719" y="132.45" fill-rule="evenodd" clip-rule="evenodd" fill="#FFFFFF" width="539.966" height="539.967"/>
<rect x="33.719" y="132.45" fill="none" stroke="#0072BB" stroke-width="1.001" stroke-miterlimit="22.926" width="539.966" height="539.967"/>
<path fill-rule="evenodd" clip-rule="evenodd" fill="#0072BB" d="M33.619,132.336l27.186,0.04l-5.173,0.585
	c-10.686,2.704-17.834,9.594-21.205,20.186l-0.808,4.291V132.336"/>
<path fill-rule="evenodd" clip-rule="evenodd" fill="#0072BB" d="M573.744,132.454l-27.068-0.078l5.057,0.703
	c10.685,2.704,17.833,9.594,21.205,20.186l0.807,4.291V132.454"/>
<path fill-rule="evenodd" clip-rule="evenodd" fill="#0072BB" d="M573.704,672.441l-27.188-0.04l5.175-0.585
	c10.686-2.704,17.834-9.594,21.205-20.186l0.808-4.292V672.441"/>
<path fill-rule="evenodd" clip-rule="evenodd" fill="#0072BB" d="M33.782,672.391l27.187,0.019l-5.174-0.644
	c-10.686-2.702-17.833-9.593-21.205-20.185l-0.808-4.292V672.391"/>
<path fill-rule="evenodd" clip-rule="evenodd" fill="#0072BB" d="M59.803,145.635H548.19c6.887,0,12.521,5.63,12.521,12.511v489.059
	c0,6.881-5.635,12.511-12.521,12.511H59.803c-6.888,0-12.523-5.63-12.523-12.511V158.146
	C47.28,151.265,52.915,145.635,59.803,145.635"/>
<path fill-rule="evenodd" clip-rule="evenodd" fill="#FFFFFF" d="M432.001,238.792c2.25,0,4.086,1.836,4.086,4.086
	c0,2.251-1.836,4.086-4.086,4.086c-2.251,0-4.087-1.835-4.087-4.086C427.914,240.628,429.75,238.792,432.001,238.792
	 M375.908,211.303c13.951-11.309,31.864-14.446,47.796-21.545c11.227-5.944,8.338,3.467,5.449,4.458
	c-8.091,10.731-16.181,21.462-24.271,32.194c-2.476,10.649,6.644,3.553,9.863,5.535c33.432-6.77,64.927,1.482,94.892,6.847
	c4.48,2.259,8.061,3.804,11.74,6.663c2.18,2.082,0.878,6.32-0.647,6.615c-1.156,1.404-2.012,2.407-3.168,3.81
	c0.296,3.715,0.291,7.429,1.486,11.144c-0.33,3.55-2.889,5.613-5.448,6.934c-8.655,0.254-16.51,1.51-24.765,3.467
	c-1.898,1.899-1.578,3.302-0.743,4.953c8.172,2.889,18.573,6.274,26.746,9.163c11.722,9.824,1.167,23.157-4.446,17.626
	c-11.062-6.191-19.905-7.72-30.472-11.93c-45.485-13.538-51.842,27.406-54.73,35.414c-7.926-2.477-15.603-4.458-23.774-7.43
	c-13.208-1.156-23.444-6.769-34.423-11.639C377.394,285.844,377.147,245.813,375.908,211.303z"/>
<path fill-rule="evenodd" clip-rule="evenodd" fill="#FFFFFF" d="M149.579,335.855c-14.787-24.166,9.608-35.907,13.263-15.217
	l2.256,4.219c5.056,7.585,9.597,15.169,14.653,22.753c0.596,5.335,5.319,8.09,7.721,12.135
	C215.878,384.9,303.617,384,340.278,353.177l14.805-18.46c22.626,7.331,45.252,14.663,67.878,21.994
	c-2.569,28.245-0.495,51.33-0.485,76.737c1.966,57.517,3.93,115.033,5.894,172.549c1.298,7.118,0.015,8.303-3.847,8.198
	c-6.056,0.099-12.11,0.197-18.166,0.297c-1.671,0.113-2.566-3.644-4.236-3.529c-2.705-29.513-5.152-59.025-7.857-88.537
	c-0.808-4.586-1.695-14.016-6.825,0c-6.352,29.452-12.701,59.162-20.6,88.356c-1.86,3.569-4.236,5.335-10.997,6.066
	c-4.55-0.212-9.101-0.424-13.65-0.636c-1.148-3.125-3.587-6.764-1.896-14.79c6.063-31.132,12.126-62.264,18.189-93.396
	c-0.836-5.715-2.446-11.17-9.473-13.273c-20.436-11.766-40.871-23.531-61.307-35.296c-39.133-18.2-50.406-0.8-51.618,5.765
	c-21.392,31.034-47.169,58.715-64.174,93.104c-4.038,19.94-0.853,36.271,0.268,54.407c-0.796,3.598-3.14,5.648-4.969,5.894
	c-4.235,0.487-8.47,0.974-12.704,1.461c-8.961-1.505-6.473-9.55-8.389-15.078c-0.366-14.911-0.99-29.822-1.099-44.731
	c5.928-11.096,11.855-22.19,17.783-33.284c6.777-11.302,1.688-14.864-7.529-3.722c-11.287,13.231-22.317,27.237-34.12,39.438
	c-4.455,17.786-5.556,34.54-5.626,52.585l-4.09,4.352c-5.787-0.039-11.058-0.077-16.845-0.116
	c-8.157-1.063-3.931-8.318-5.897-12.478c1.819-14.053,3.896-28.105,5.458-42.159c2.906-14.674,6.844-16.707,12.588-23.127
	c13.638-14.574,25.729-22.443,33.95-56.882c3.28-23.48,3.206-47.735,5.455-71.475c2.463-14.852,9.571-24.028,14.357-36.041
	c7.897-7.254,0.058-15.539-2.622-22.534L149.579,335.855"/>
</svg>
