<?xml version="1.0" encoding="utf-8"?>
<!-- Generator: Adobe Illustrator 15.1.0, SVG Export Plug-In . SVG Version: 6.00 Build 0)  -->
<!DOCTYPE svg PUBLIC "-//W3C//DTD SVG 1.1//EN" "http://www.w3.org/Graphics/SVG/1.1/DTD/svg11.dtd">
<svg version="1.1" id="Layer_1" xmlns="http://www.w3.org/2000/svg" xmlns:xlink="http://www.w3.org/1999/xlink" x="0px" y="0px"
	 width="595px" height="842px" viewBox="0 0 595 842" enable-background="new 0 0 595 842" xml:space="preserve">
<rect x="33.719" y="132.45" fill-rule="evenodd" clip-rule="evenodd" fill="#FFFFFF" width="539.966" height="539.967"/>
<rect x="33.719" y="132.45" fill="none" stroke="#0072BB" stroke-width="1.001" stroke-miterlimit="22.926" width="539.966" height="539.967"/>
<path fill-rule="evenodd" clip-rule="evenodd" fill="#0072BB" d="M33.619,132.336l27.186,0.04l-5.173,0.585
	c-10.686,2.704-17.834,9.594-21.205,20.186l-0.808,4.291V132.336"/>
<path fill-rule="evenodd" clip-rule="evenodd" fill="#0072BB" d="M573.744,132.454l-27.068-0.078l5.057,0.703
	c10.685,2.704,17.833,9.594,21.205,20.186l0.807,4.291V132.454"/>
<path fill-rule="evenodd" clip-rule="evenodd" fill="#0072BB" d="M573.704,672.441l-27.188-0.04l5.175-0.585
	c10.686-2.704,17.834-9.594,21.205-20.186l0.808-4.292V672.441"/>
<path fill-rule="evenodd" clip-rule="evenodd" fill="#0072BB" d="M33.782,672.391l27.187,0.019l-5.174-0.644
	c-10.686-2.702-17.833-9.593-21.205-20.185l-0.808-4.292V672.391"/>
<path fill-rule="evenodd" clip-rule="evenodd" fill="#0072BB" d="M59.803,145.635H548.19c6.887,0,12.521,5.63,12.521,12.511v489.059
	c0,6.881-5.635,12.511-12.521,12.511H59.803c-6.888,0-12.523-5.63-12.523-12.511V158.146
	C47.28,151.265,52.915,145.635,59.803,145.635"/>
<path fill-rule="evenodd" clip-rule="evenodd" fill="#FFFFFF" d="M191.491,382.827h36.558l6.905,29.663l181.574-0.01l10.154,42.651
	l47.526-0.01l5.281,21.935l-378.177,0.011l-6.093-22.747h80.022L191.491,382.827 M288.99,453.1l-0.01-28.027h-50.776l6.093,28.027
	H288.99z M348.702,453.517l-0.01-28.444h-47.526v28.434L348.702,453.517z M362.097,425.885l0.011,28.435l49.557-0.011l-7.729-28.424
	H362.097z M217.081,248.373l10.156,1.219L217.081,368.61h22.342l7.311,29.246l11.374-0.406l17.467-64.586l71.897,17.06
	l12.999,47.526l66.617,0.406l10.155,41.839l15.436-0.406l19.093-158.42l10.154,0.813l-13.404,157.607l18.278,0.406l8.531,36.965
	l33.308,0.02l-21.935,78.378l-397.268,0.951L76.128,438.883l87.741,0.406l17.06-71.086l21.123-0.406L217.081,248.373z"/>
</svg>
