<?xml version="1.0" encoding="utf-8"?>
<!-- Generator: Adobe Illustrator 15.1.0, SVG Export Plug-In . SVG Version: 6.00 Build 0)  -->
<!DOCTYPE svg PUBLIC "-//W3C//DTD SVG 1.1//EN" "http://www.w3.org/Graphics/SVG/1.1/DTD/svg11.dtd">
<svg version="1.1" id="Layer_1" xmlns="http://www.w3.org/2000/svg" xmlns:xlink="http://www.w3.org/1999/xlink" x="0px" y="0px"
	 width="595px" height="842px" viewBox="0 0 595 842" enable-background="new 0 0 595 842" xml:space="preserve">
<rect x="33.719" y="132.45" fill-rule="evenodd" clip-rule="evenodd" fill="#FFFFFF" width="539.966" height="539.967"/>
<rect x="33.719" y="132.45" fill="none" stroke="#0072BB" stroke-width="1.001" stroke-miterlimit="22.926" width="539.966" height="539.967"/>
<path fill-rule="evenodd" clip-rule="evenodd" fill="#0072BB" d="M33.619,132.336l27.186,0.04l-5.173,0.585
	c-10.686,2.704-17.834,9.594-21.205,20.186l-0.808,4.291V132.336"/>
<path fill-rule="evenodd" clip-rule="evenodd" fill="#0072BB" d="M573.744,132.454l-27.068-0.078l5.057,0.703
	c10.685,2.704,17.833,9.594,21.205,20.186l0.807,4.291V132.454"/>
<path fill-rule="evenodd" clip-rule="evenodd" fill="#0072BB" d="M573.704,672.441l-27.188-0.04l5.175-0.585
	c10.686-2.704,17.834-9.594,21.205-20.186l0.808-4.292V672.441"/>
<path fill-rule="evenodd" clip-rule="evenodd" fill="#0072BB" d="M33.782,672.391l27.187,0.019l-5.174-0.644
	c-10.686-2.702-17.833-9.593-21.205-20.185l-0.808-4.292V672.391"/>
<path fill-rule="evenodd" clip-rule="evenodd" fill="#0072BB" d="M59.803,145.635H548.19c6.887,0,12.521,5.63,12.521,12.511v489.059
	c0,6.881-5.635,12.511-12.521,12.511H59.803c-6.888,0-12.523-5.63-12.523-12.511V158.146
	C47.28,151.265,52.915,145.635,59.803,145.635"/>
<path fill-rule="evenodd" clip-rule="evenodd" fill="#FFFFFF" d="M344.511,362.079c51.559,1.795,84.751,18.787,107.18,32.93
	c32.612,18.153,29.13,59.421,2.85,84.857l-16.465,17.73l66.809,2.851c9.921,11.187,12.56,28.226,12.665,37.196l-113.986-0.151
	c-30.607,1.372-16.888-22.27-17.731-26.28l14.248-41.795c0.739-3.589,0.844-7.494-2.216-10.765
	c-16.043-2.218-30.502-8.866-45.596-16.149c-6.755-2.322-8.442,2.639-10.765,6.333l-34.851,80.669
	c-4.424,6.448-9.797,10.363-20.871,9.846l-13.366,0.028c-3.49-1.035-14.579,0.147-7.62-7.854l13.592-21.009
	C300.428,461.038,320.886,406.809,344.511,362.079"/>
<path fill-rule="evenodd" clip-rule="evenodd" fill="#FFFFFF" d="M327.888,364.929l-14.564,32.93
	c-23.655,30.94-61.545,6.422-66.493-9.499l-0.361-0.72c-10.765-25.753,4.492-63.885,47.466-55.788l1.078,0.506
	C305.545,334.581,322.284,339.477,327.888,364.929"/>
<path fill-rule="evenodd" clip-rule="evenodd" fill="#FFFFFF" d="M213.268,500.763c10.289,0,18.681,8.393,18.681,18.683
	c0,10.289-8.392,18.681-18.681,18.681c-10.29,0-18.682-8.392-18.682-18.681C194.586,509.155,202.978,500.763,213.268,500.763"/>
<path fill-rule="evenodd" clip-rule="evenodd" fill="#FFFFFF" d="M119.862,500.13c10.289,0,18.681,8.393,18.681,18.683
	c0,10.287-8.392,18.68-18.681,18.68c-10.289,0-18.681-8.393-18.681-18.68C101.181,508.522,109.573,500.13,119.862,500.13"/>
<polyline fill-rule="evenodd" clip-rule="evenodd" fill="#FFFFFF" points="119.229,440.604 161.974,440.92 161.657,471.95 
	253.796,471.633 254.43,503.613 89.149,503.613 90.415,471.633 111.313,471.633 119.229,440.604 "/>
</svg>
