<?xml version="1.0" encoding="utf-8"?>
<!-- Generator: Adobe Illustrator 15.1.0, SVG Export Plug-In . SVG Version: 6.00 Build 0)  -->
<!DOCTYPE svg PUBLIC "-//W3C//DTD SVG 1.1//EN" "http://www.w3.org/Graphics/SVG/1.1/DTD/svg11.dtd">
<svg version="1.1" id="Layer_1" xmlns="http://www.w3.org/2000/svg" xmlns:xlink="http://www.w3.org/1999/xlink" x="0px" y="0px"
	 width="595px" height="842px" viewBox="0 0 595 842" enable-background="new 0 0 595 842" xml:space="preserve">
<g>
	<rect x="33.719" y="132.45" fill-rule="evenodd" clip-rule="evenodd" fill="#FFFFFF" width="539.965" height="539.967"/>
	
		<rect x="33.719" y="132.45" fill="none" stroke="#0072BB" stroke-width="1.001" stroke-miterlimit="22.926" width="539.965" height="539.967"/>
	<g>
		<path fill-rule="evenodd" clip-rule="evenodd" fill="#0072BB" d="M33.619,132.336l27.186,0.04l-5.173,0.585
			c-10.686,2.704-17.834,9.594-21.205,20.186l-0.808,4.291V132.336"/>
		<path fill-rule="evenodd" clip-rule="evenodd" fill="#0072BB" d="M573.744,132.454l-27.068-0.078l5.057,0.703
			c10.685,2.704,17.833,9.594,21.205,20.186l0.807,4.291V132.454"/>
		<path fill-rule="evenodd" clip-rule="evenodd" fill="#0072BB" d="M573.704,672.441l-27.188-0.04l5.176-0.585
			c10.686-2.704,17.834-9.594,21.205-20.186l0.808-4.292V672.441"/>
		<path fill-rule="evenodd" clip-rule="evenodd" fill="#0072BB" d="M33.782,672.391l27.187,0.019l-5.174-0.644
			c-10.686-2.702-17.833-9.593-21.205-20.185l-0.808-4.292V672.391"/>
		<path fill-rule="evenodd" clip-rule="evenodd" fill="#0072BB" d="M61.338,145.635h488.387c6.887,0,12.521,5.63,12.521,12.511
			v489.059c0,6.881-5.635,12.511-12.521,12.511H61.338c-6.888,0-12.523-5.63-12.523-12.511V158.146
			C48.815,151.265,54.45,145.635,61.338,145.635"/>
	</g>
	<path fill="#FFFFFF" d="M467.593,458.38c-6.831-7.17-14.678-12.924-23.585-17.231c-8.908-4.308-18.17-6.461-27.801-6.461h-36.832
		V366.5h36.832c10.062,0,19.569-2.154,28.555-6.462c8.969-4.308,16.8-10.062,23.479-17.247c6.677-7.185,11.938-15.478,15.83-24.893
		c3.877-9.4,5.832-19.216,5.832-29.417c0-10.477-2.094-20.431-6.247-29.847c-4.17-9.415-9.816-17.677-16.925-24.785
		c-7.107-7.109-15.354-12.755-24.77-16.924c-9.4-4.154-19.262-6.246-29.601-6.246s-20.216,2.015-29.632,6.03
		c-9.4,4.032-17.662,9.524-24.771,16.494c-7.107,6.97-12.738,15.123-16.893,24.462c-4.169,9.338-6.246,19.324-6.246,29.955v37.278
		h-60.802V287.62c0-10.493-2.154-20.401-6.462-29.74s-10.047-17.493-17.216-24.463c-7.185-6.968-15.462-12.492-24.863-16.6
		c-9.4-4.091-19.262-6.138-29.585-6.138c-10.77,0-20.893,2.092-30.355,6.246c-9.462,4.169-17.724,9.785-24.755,16.817
		c-7.031,7.029-12.554,15.307-16.57,24.784c-4.015,9.478-6.015,19.478-6.015,29.955c0,10.631,2,20.663,6.031,30.063
		c4.015,9.415,9.446,17.678,16.277,24.786c6.816,7.107,14.724,12.753,23.709,16.923c8.985,4.169,18.355,6.247,28.139,6.247h36.863
		v68.188h-36.863c-10.062,0-19.585,2.092-28.57,6.245c-8.985,4.17-16.847,9.816-23.617,16.924
		c-6.738,7.108-12.091,15.354-16.046,24.771c-3.954,9.4-5.923,19.354-5.923,29.831c0,10.632,2.031,20.647,6.123,30.048
		c4.092,9.415,9.647,17.631,16.678,24.678c7.03,7.031,15.292,12.601,24.754,16.693c9.462,4.092,19.509,6.138,30.14,6.138
		c10.462,0,20.401-2.124,29.801-6.368c9.4-4.231,17.677-9.878,24.862-16.925c7.17-7.047,12.878-15.17,17.108-24.37
		c4.232-9.2,6.355-18.77,6.355-28.693v-38.601h60.802v38.601c0,10.646,2,20.601,6.03,29.878c4.016,9.277,9.539,17.371,16.586,24.264
		c7.031,6.906,15.246,12.339,24.646,16.277c9.416,3.969,19.508,5.938,30.278,5.938c10.908,0,21.063-2.076,30.463-6.246
		c9.415-4.169,17.6-9.8,24.555-16.908c6.969-7.108,12.461-15.37,16.492-24.785c4.016-9.4,6.032-19.278,6.032-29.617
		c0-10.2-2.017-19.954-6.047-29.293C479.839,473.826,474.423,465.564,467.593,458.38z M334.819,434.688h-60.802V366.5h60.802
		V434.688z M229.215,324.898h-33.201c-4.877,0-9.293-0.923-13.247-2.8c-3.954-1.862-7.369-4.4-10.231-7.631
		c-2.877-3.231-5.108-7.077-6.677-11.524c-1.585-4.446-2.369-9.246-2.369-14.416c0-5.446,0.815-10.462,2.461-15.062
		c1.662-4.6,3.954-8.538,6.909-11.831c2.938-3.307,6.384-5.846,10.338-7.646c3.954-1.8,8.231-2.693,12.816-2.693
		c4.308,0,8.447,1.016,12.4,3.016c3.939,2,7.462,4.739,10.554,8.185c3.093,3.431,5.57,7.416,7.432,11.939
		c1.877,4.523,2.815,9.215,2.815,14.092V324.898z M229.215,512.32c0,4.738-0.908,9.292-2.708,13.677
		c-1.784,4.386-4.2,8.293-7.215,11.739c-3.016,3.446-6.539,6.216-10.555,8.293c-4.03,2.076-8.261,3.123-12.723,3.123
		c-4.585,0-8.893-0.97-12.924-2.908c-4.031-1.938-7.477-4.554-10.338-7.861c-2.877-3.293-5.139-7.216-6.801-11.739
		c-1.646-4.523-2.461-9.293-2.461-14.323c0-5.309,0.815-10.231,2.461-14.755c1.662-4.523,3.924-8.431,6.801-11.738
		c2.861-3.293,6.276-5.924,10.231-7.862c3.954-1.938,8.292-2.907,13.031-2.907h33.201V512.32z M444.607,288.527
		c0,5.016-0.831,9.724-2.492,14.093c-1.646,4.385-3.908,8.216-6.77,11.508c-2.877,3.308-6.277,5.923-10.231,7.862
		c-3.954,1.938-8.216,2.908-12.815,2.908h-32.924v-36.371c0.017-7.729,0.639-8.215,1.828-13.565
		c1.208-5.435,5.55-11.741,8.252-14.088c5.568-4.837,8.421-5.441,10.867-6.441c2.431-1,10.441-2.012,13.888-2.012
		c4.168,0,8.198,1.22,12.075,3.22s5.398,3.408,8.414,6.854c3.016,3.431,5.416,7.416,7.2,11.939
		C443.7,278.958,444.607,283.65,444.607,288.527 M444.607,512.32c0,4.893-0.861,9.554-2.585,14
		c-1.723,4.462-4.092,8.369-7.107,11.739c-3.016,3.369-6.462,6.077-10.339,8.077c-3.877,2.016-7.97,3.016-12.277,3.016
		c-4.586,0-8.893-0.97-12.908-2.908s-7.508-4.6-10.446-7.97c-2.938-3.369-5.277-7.277-7.001-11.738
		c-1.723-4.446-2.568-9.186-2.568-14.216v-37.263h32.924c4.169,0,8.185,1.075,12.062,3.23c3.877,2.153,7.323,4.954,10.339,8.4
		s5.416,7.4,7.2,11.847C443.7,502.997,444.607,507.581,444.607,512.32"/>
</g>
</svg>
