<?xml version="1.0" encoding="utf-8"?>
<!-- Generator: Adobe Illustrator 15.1.0, SVG Export Plug-In . SVG Version: 6.00 Build 0)  -->
<!DOCTYPE svg PUBLIC "-//W3C//DTD SVG 1.1//EN" "http://www.w3.org/Graphics/SVG/1.1/DTD/svg11.dtd">
<svg version="1.1" id="Layer_1" xmlns="http://www.w3.org/2000/svg" xmlns:xlink="http://www.w3.org/1999/xlink" x="0px" y="0px"
	 width="595px" height="842px" viewBox="0 0 595 842" enable-background="new 0 0 595 842" xml:space="preserve">
<rect x="33.719" y="132.45" fill-rule="evenodd" clip-rule="evenodd" fill="#FFFFFF" width="539.966" height="539.967"/>
<rect x="33.719" y="132.45" fill="none" stroke="#0072BB" stroke-width="1.001" stroke-miterlimit="22.926" width="539.966" height="539.967"/>
<path fill-rule="evenodd" clip-rule="evenodd" fill="#0072BB" d="M33.619,132.336l27.186,0.04l-5.173,0.585
	c-10.686,2.704-17.834,9.594-21.205,20.186l-0.808,4.291V132.336"/>
<path fill-rule="evenodd" clip-rule="evenodd" fill="#0072BB" d="M573.744,132.454l-27.068-0.078l5.057,0.703
	c10.685,2.704,17.833,9.594,21.205,20.186l0.807,4.291V132.454"/>
<path fill-rule="evenodd" clip-rule="evenodd" fill="#0072BB" d="M573.704,672.441l-27.188-0.04l5.175-0.585
	c10.686-2.704,17.834-9.594,21.205-20.186l0.808-4.292V672.441"/>
<path fill-rule="evenodd" clip-rule="evenodd" fill="#0072BB" d="M33.782,672.391l27.187,0.019l-5.174-0.644
	c-10.686-2.702-17.833-9.593-21.205-20.185l-0.808-4.292V672.391"/>
<path fill-rule="evenodd" clip-rule="evenodd" fill="#0072BB" d="M59.803,145.635H548.19c6.887,0,12.521,5.63,12.521,12.511v489.059
	c0,6.881-5.635,12.511-12.521,12.511H59.803c-6.888,0-12.523-5.63-12.523-12.511V158.146
	C47.28,151.265,52.915,145.635,59.803,145.635"/>
<path fill-rule="evenodd" clip-rule="evenodd" fill="#FFFFFF" d="M301.993,408.762L115.539,473.39
	c-1.384,0.906-3.584,6.268,0.743,7.801l371.795-0.011c6.021-0.276,4.64-6.766,0.622-8.108L301.993,408.762 M309.114,338.876
	c0-5.714-1.581-10.773-6.986-11.082c-10.964-1.791-20.315-10.33-20.562-22.776c0-12.2,6.777-22.429,21.139-22.429
	c12.014,0.988,20.188,8.338,20.682,22.544c0,6.486,12.673,6.332,12.673,0c0-18.839-16.214-33.2-33.354-33.2
	c-19.381-0.85-33.742,12.389-32.892,33.818c0,14.207,9.419,26.252,22.082,30.73c2.779,0.927,5.25,1.854,5.25,6.332v11.427
	c0,2.934-2.471,4.015-6.64,5.868L92.212,459.999c-24.175,13.697-8.62,34.728-0.094,36.505l416.316-0.15
	c20.075,0,25.904-27.068,5.984-36.024L314.904,360.108c-4.169-1.853-4.94-2.934-4.94-5.868L309.114,338.876z"/>
</svg>
