<?xml version="1.0" encoding="utf-8"?>
<!-- Generator: Adobe Illustrator 15.1.0, SVG Export Plug-In . SVG Version: 6.00 Build 0)  -->
<!DOCTYPE svg PUBLIC "-//W3C//DTD SVG 1.1//EN" "http://www.w3.org/Graphics/SVG/1.1/DTD/svg11.dtd">
<svg version="1.1" id="Layer_1" xmlns="http://www.w3.org/2000/svg" xmlns:xlink="http://www.w3.org/1999/xlink" x="0px" y="0px"
	 width="595px" height="842px" viewBox="0 0 595 842" enable-background="new 0 0 595 842" xml:space="preserve">
<rect x="33.719" y="132.45" fill-rule="evenodd" clip-rule="evenodd" fill="#FFFFFF" width="539.966" height="539.967"/>
<rect x="33.719" y="132.45" fill="none" stroke="#0072BB" stroke-width="1.001" stroke-miterlimit="22.926" width="539.966" height="539.967"/>
<path fill-rule="evenodd" clip-rule="evenodd" fill="#0072BB" d="M33.619,132.336l27.186,0.04l-5.173,0.585
	c-10.686,2.704-17.834,9.594-21.205,20.186l-0.808,4.291V132.336"/>
<path fill-rule="evenodd" clip-rule="evenodd" fill="#0072BB" d="M573.744,132.454l-27.068-0.078l5.057,0.703
	c10.685,2.704,17.833,9.594,21.205,20.186l0.807,4.291V132.454"/>
<path fill-rule="evenodd" clip-rule="evenodd" fill="#0072BB" d="M573.704,672.441l-27.188-0.04l5.175-0.585
	c10.686-2.704,17.834-9.594,21.205-20.186l0.808-4.292V672.441"/>
<path fill-rule="evenodd" clip-rule="evenodd" fill="#0072BB" d="M33.782,672.391l27.187,0.019l-5.174-0.644
	c-10.686-2.702-17.833-9.593-21.205-20.185l-0.808-4.292V672.391"/>
<path fill-rule="evenodd" clip-rule="evenodd" fill="#0072BB" d="M59.803,145.635H548.19c6.887,0,12.521,5.63,12.521,12.511v489.059
	c0,6.881-5.635,12.511-12.521,12.511H59.803c-6.888,0-12.523-5.63-12.523-12.511V158.146
	C47.28,151.265,52.915,145.635,59.803,145.635"/>
<path fill-rule="evenodd" clip-rule="evenodd" fill="#FFFFFF" d="M245.089,351.005l24.645-13.648
	c4.416-23.055-2.562-54.06,19.61-69.165c1.414-3.269,2.297-7.067,0.265-10.6c-4.947,1.059-8.568,0.265-10.865-5.566
	c-1.855-6.536-2.65-13.073-1.59-19.61c-3.798-13.073,1.678-17.667,10.07-19.345c15.988-5.3,25.882,1.06,27.56,12.72
	c0.795,7.332-0.53,15.194-1.855,21.995c-1.942,7.067-1.235,13.074,2.12,17.226c9.011,13.603,10.601,33.301,9.54,49.82
	c0.354,3.799,2.032,7.862,4.24,11.395c4.506,11.925,5.036,23.851,4.771,35.776l28.62-3.71l18.021-2.915
	c20.407-3.805,35.248,0.341,55.654,10.847c55.981-13.864,72.477,29.777,74.928,45.064c4.724,18.637,2.559,37.009-2.522,54.321
	c-4.456,9.813,2.218,19.359,15.253,18.307c-15.847,9.628-25.863,4.947-34.025-8.479c-15.85-24.472-6.258-56.097-16.54-81.361
	c-5.738-23.344-19.956-20.186-27.55-18.354c13.155,15.544,27.104,33.473,19.589,66.242c0.982,17.584,4.615,37.818,24.414,54.607
	c-0.144,5.363-0.286,10.729-0.431,16.093c5.201,19.209,10.666,38.152,17.192,56.831c2.003,7.841-2.619,10.647-6.71,13.983
	l0.049,12.469l-22.244-0.176c0.334-6.727,4.113-11.597,8.952-16.201c5.623-9.006,1.176-16.421,0.174-24.631
	c-6.237-22.116-14.33-36.282-29.843-53.629c-14.936-9.776-31.461-17.169-41.626-34.895c-25.64,13.161-13.914,36.922-13.053,51.938
	c-16.478,13.523-30.305,29.168-42.807,46.933c-3.097,9.371-4.073,16.094-12.471,18.576l-3.121,11.498l-22.043,0.214
	c13.716-26.023,29.563-49.812,48.172-72.449c2.719-4.527,3.053-9.319,0.207-15.17c-6.979-14.523-11.31-29.576-13.784-44.364
	c-28.938,5.342-61.055,8.564-91.848,4.102c8.902,30.349,13.569,60.366,24.64,90.903c5.309,9.729,6.113,13.362-1.828,19.646
	c-5.832,4.709-5.864,11.568-5.624,17.521l-22.67,0.006c1.524-8.147,5.964-14.176,11.729-21.263c2.44-4.92,6.736-8.251,1.757-17.146
	c-12.692-30.455-30.685-58.261-46.028-87.391c-2.766-1.374-5.267-3.012-8.298-4.12l-37.105,11.558
	c-8.556-0.671-15.522,2.368-23.283,2.757c-6.35,0.738-7.135,5.451-5.535,12.549c2.827,10.603,4.858,20.939,6.095,31.806
	c7.027,1.724,12.2,5.036,13.927,11.53l11.371,0.278l-0.025,21.764c-15.196-1.432-28.007-9.754-36.048-23.377
	c-5.994-19.34-11.989-38.681-17.983-58.021c-1.902-4.541-1.155-9.348,4.628-12.827c18.028-10.121,36.056-16.796,56.469-20.026
	c-6.948-13.411-9.922-27.616-10.511-41.821c-5.287-18.658-13.224-34.931-23.811-51.203l-10.245,5.456l-6.49,20.292
	c0.176,8.693,3.267,18.71-4.242,21.307c-10.43,3.028-26.16,8.707-28.904-13.175c-3.221-25.227-8.032-50.453-9.663-75.68
	l-19.296-11.394c11.25-1.837,21.174-3.674,32.953-0.741c5.395-0.529,11.318-1.854,16.182-3.973
	C185.022,283.123,208.43,322.894,245.089,351.005"/>
</svg>
