<?xml version="1.0" encoding="utf-8"?>
<!-- Generator: Adobe Illustrator 15.1.0, SVG Export Plug-In . SVG Version: 6.00 Build 0)  -->
<!DOCTYPE svg PUBLIC "-//W3C//DTD SVG 1.1//EN" "http://www.w3.org/Graphics/SVG/1.1/DTD/svg11.dtd">
<svg version="1.1" id="Layer_1" xmlns="http://www.w3.org/2000/svg" xmlns:xlink="http://www.w3.org/1999/xlink" x="0px" y="0px"
	 width="595px" height="842px" viewBox="0 0 595 842" enable-background="new 0 0 595 842" xml:space="preserve">
<rect x="33.719" y="132.45" fill-rule="evenodd" clip-rule="evenodd" fill="#FFFFFF" width="539.966" height="539.967"/>
<rect x="33.719" y="132.45" fill="none" stroke="#0072BB" stroke-width="1.001" stroke-miterlimit="22.926" width="539.966" height="539.967"/>
<path fill-rule="evenodd" clip-rule="evenodd" fill="#0072BB" d="M33.619,132.336l27.186,0.04l-5.173,0.585
	c-10.686,2.704-17.834,9.594-21.205,20.186l-0.808,4.291V132.336"/>
<path fill-rule="evenodd" clip-rule="evenodd" fill="#0072BB" d="M573.744,132.454l-27.068-0.078l5.057,0.703
	c10.685,2.704,17.833,9.594,21.205,20.186l0.807,4.291V132.454"/>
<path fill-rule="evenodd" clip-rule="evenodd" fill="#0072BB" d="M573.704,672.441l-27.188-0.04l5.175-0.585
	c10.686-2.704,17.834-9.594,21.205-20.186l0.808-4.292V672.441"/>
<path fill-rule="evenodd" clip-rule="evenodd" fill="#0072BB" d="M33.782,672.391l27.187,0.019l-5.174-0.644
	c-10.686-2.702-17.833-9.593-21.205-20.185l-0.808-4.292V672.391"/>
<path fill-rule="evenodd" clip-rule="evenodd" fill="#0072BB" d="M59.803,145.635H548.19c6.887,0,12.521,5.63,12.521,12.511v489.059
	c0,6.881-5.635,12.511-12.521,12.511H59.803c-6.888,0-12.523-5.63-12.523-12.511V158.146
	C47.28,151.265,52.915,145.635,59.803,145.635"/>
<path fill-rule="evenodd" clip-rule="evenodd" fill="#FFFFFF" d="M294.317,457.965L150.088,610.543l-0.009,0.01
	c-32.819,39.876-92.777-8.808-60.489-49.115h-0.001l160.65-150.896l-25.24-27.156l-0.027,0.011
	c-26.834,10.311-57.138,5.175-79.076-13.402l-0.018-0.017c-32.095-29.17-54.524-67.421-64.308-109.673l0.007,0.03
	c-12.438-41.212,29.272-77.939,68.578-60.386l0.037,0.01c36.493,9.75,69.627,29.259,95.856,56.441l-0.017-0.018
	c25.208,21.892,33.002,57.736,19.162,88.12l0.012-0.025l27.75,25.943l54.258-50.964l-0.004-0.012
	c-8.829-24.751-2.437-52.361,16.371-70.715l67.636-67.812c6.531-6.537,17.118-6.538,23.65-0.002
	c6.521,6.546,6.498,17.133-0.054,23.649l0.002-0.001l-66.672,66.845c-3.273,3.277-3.251,8.596,0.051,11.846
	c3.295,3.254,8.614,3.2,11.845-0.119l0.002-0.002l66.883-66.883c15.754-15.728,39.349,7.846,23.632,23.612l0.002-0.001
	l-67.014,67.014c-3.281,3.276-3.261,8.602,0.044,11.854c3.3,3.257,8.626,3.198,11.854-0.131l0.002-0.001l66.566-67.284
	c6.563-6.622,17.265-6.6,23.798,0.049c6.524,6.66,6.344,17.36-0.402,23.795l0.003-0.002l-68.163,68.876l-0.019,0.017
	c-18.263,18.411-45.57,24.473-69.908,15.519l0.011,0.005l-49.719,52.596L490.175,554.8l0.006,0.005
	c17.396,14.419,18.927,40.541,3.331,56.892c-15.621,16.325-41.785,15.99-56.982-0.728l0.004,0.005L294.317,457.965"/>
</svg>
