<?xml version="1.0" encoding="utf-8"?>
<!-- Generator: Adobe Illustrator 15.1.0, SVG Export Plug-In . SVG Version: 6.00 Build 0)  -->
<!DOCTYPE svg PUBLIC "-//W3C//DTD SVG 1.1//EN" "http://www.w3.org/Graphics/SVG/1.1/DTD/svg11.dtd">
<svg version="1.1" id="Layer_1" xmlns="http://www.w3.org/2000/svg" xmlns:xlink="http://www.w3.org/1999/xlink" x="0px" y="0px"
	 width="595px" height="842px" viewBox="0 0 595 842" enable-background="new 0 0 595 842" xml:space="preserve">
<rect x="33.719" y="132.45" fill-rule="evenodd" clip-rule="evenodd" fill="#FFFFFF" width="539.966" height="539.967"/>
<rect x="33.719" y="132.45" fill="none" stroke="#0072BB" stroke-width="1.001" stroke-miterlimit="22.926" width="539.966" height="539.967"/>
<path fill-rule="evenodd" clip-rule="evenodd" fill="#0072BB" d="M33.619,132.336l27.186,0.04l-5.173,0.585
	c-10.686,2.704-17.834,9.594-21.205,20.186l-0.808,4.291V132.336"/>
<path fill-rule="evenodd" clip-rule="evenodd" fill="#0072BB" d="M573.744,132.454l-27.068-0.078l5.057,0.703
	c10.685,2.704,17.833,9.594,21.205,20.186l0.807,4.291V132.454"/>
<path fill-rule="evenodd" clip-rule="evenodd" fill="#0072BB" d="M573.704,672.441l-27.188-0.04l5.175-0.585
	c10.686-2.704,17.834-9.594,21.205-20.186l0.808-4.292V672.441"/>
<path fill-rule="evenodd" clip-rule="evenodd" fill="#0072BB" d="M33.782,672.391l27.187,0.019l-5.174-0.644
	c-10.686-2.702-17.833-9.593-21.205-20.185l-0.808-4.292V672.391"/>
<path fill-rule="evenodd" clip-rule="evenodd" fill="#0072BB" d="M61.338,145.635h488.387c6.887,0,12.521,5.63,12.521,12.511
	v489.059c0,6.881-5.635,12.511-12.521,12.511H61.338c-6.888,0-12.523-5.63-12.523-12.511V158.146
	C48.815,151.265,54.45,145.635,61.338,145.635"/>
<g>
	<g>
		<polygon fill="#FFFFFF" points="450.101,526.303 450.101,346.574 495.096,346.574 495.096,335.261 302.511,170.445 
			110.182,335.261 110.182,346.574 155.693,346.574 155.693,526.303 		"/>
		<polygon fill="#0072BB" points="181.148,325.49 166.749,325.49 303.023,209.27 437.759,325.49 420.787,325.49 420.787,497.763 
			183.462,497.763 		"/>
	</g>
	<g>
		<path fill="#FFFFFF" d="M106.686,606.629l15.712-1.511c0.951,5.302,2.879,9.195,5.786,11.683
			c2.905,2.486,6.825,3.729,11.761,3.729c5.229,0,9.167-1.105,11.818-3.318s3.976-4.798,3.976-7.76c0-1.901-0.556-3.52-1.666-4.854
			c-1.111-1.335-3.048-2.495-5.815-3.483c-1.894-0.657-6.207-1.827-12.941-3.51c-8.664-2.155-14.743-4.803-18.237-7.941
			c-4.915-4.414-7.372-9.797-7.372-16.146c0-4.086,1.155-7.908,3.469-11.467c2.313-3.557,5.645-6.267,9.998-8.127
			c4.352-1.86,9.605-2.792,15.76-2.792c10.052,0,17.619,2.214,22.699,6.643c5.081,4.429,7.75,10.34,8.004,17.732l-16.216,0.604
			c-0.689-4.116-2.168-7.074-4.438-8.878s-5.672-2.706-10.208-2.706c-4.684,0-8.349,0.967-10.998,2.899
			c-1.706,1.24-2.559,2.897-2.559,4.975c0,1.896,0.8,3.52,2.402,4.868c2.038,1.714,6.988,3.503,14.85,5.366
			c7.863,1.865,13.677,3.793,17.444,5.785c3.768,1.993,6.715,4.716,8.845,8.168c2.129,3.455,3.195,7.723,3.195,12.803
			c0,4.605-1.278,8.919-3.834,12.938c-2.556,4.021-6.169,7.01-10.842,8.966c-4.673,1.955-10.494,2.934-17.466,2.934
			c-10.147,0-17.941-2.351-23.38-7.052C110.993,622.478,107.744,615.628,106.686,606.629z"/>
		<path fill="#FFFFFF" d="M257.966,632.718h-17.611l-7.002-18.232h-32.025l-6.667,18.232h-17.173l31.237-80.177h17.2
			L257.966,632.718z M228.211,600.888l-11.089-29.612l-10.825,29.612H228.211z"/>
		<path fill="#FFFFFF" d="M266.558,552.541h16.216v43.476c0,6.899,0.198,11.371,0.597,13.414c0.688,3.286,2.326,5.924,4.913,7.913
			s6.125,2.983,10.614,2.983c4.561,0,7.999-0.939,10.315-2.82c2.317-1.879,3.708-4.188,4.181-6.926
			c0.469-2.737,0.705-7.282,0.705-13.634v-44.406h16.216v42.134c0,9.631-0.438,16.435-1.31,20.41
			c-0.871,3.976-2.479,7.332-4.825,10.067c-2.345,2.737-5.482,4.917-9.408,6.539c-3.928,1.625-9.056,2.437-15.383,2.437
			c-7.635,0-13.425-0.888-17.369-2.653c-3.945-1.771-7.063-4.069-9.354-6.896c-2.292-2.826-3.799-5.791-4.526-8.892
			c-1.055-4.596-1.582-11.382-1.582-20.355V552.541z"/>
		<path fill="#FFFFFF" d="M347.672,632.718v-80.177h15.719l32.83,53.622v-53.622h15.007v80.177h-16.21l-32.338-52.43v52.43H347.672z
			"/>
		<path fill="#FFFFFF" d="M500.701,632.718h-17.61l-7.003-18.232h-32.024l-6.666,18.232h-17.174l31.237-80.177h17.198
			L500.701,632.718z M470.947,600.888l-11.089-29.612l-10.824,29.612H470.947z"/>
	</g>
	<g>
		<path fill="#FFFFFF" d="M243.202,404.286l29.209-2.82c1.75,9.773,5.304,16.95,10.661,21.533
			c5.354,4.583,12.581,6.871,21.678,6.871c9.632,0,16.89-2.036,21.775-6.116c4.885-4.079,7.327-8.848,7.327-14.312
			c0-3.503-1.026-6.487-3.075-8.949c-2.052-2.461-5.631-4.602-10.739-6.421c-3.497-1.215-11.464-3.374-23.901-6.484
			c-16.002-3.985-27.23-8.882-33.682-14.693c-9.078-8.174-13.614-18.14-13.614-29.896c0-7.567,2.137-14.643,6.412-21.23
			c4.275-6.588,10.438-11.605,18.483-15.052c8.045-3.443,17.759-5.168,29.14-5.168c18.585,0,32.572,4.101,41.965,12.297
			c9.393,8.2,14.325,19.141,14.797,32.827l-30.016,1.208c-1.277-7.658-4.013-13.167-8.209-16.522
			c-4.198-3.355-10.494-5.033-18.887-5.033c-8.662,0-15.445,1.794-20.346,5.382c-3.157,2.304-4.734,5.386-4.734,9.245
			c0,3.522,1.479,6.534,4.441,9.04c3.768,3.186,12.921,6.5,27.46,9.943c14.539,3.444,25.291,7.007,32.257,10.686
			c6.966,3.683,12.417,8.713,16.354,15.093c3.938,6.383,5.908,14.265,5.908,23.651c0,8.511-2.364,16.478-7.088,23.906
			c-4.725,7.43-11.407,12.95-20.044,16.563c-8.638,3.61-19.402,5.417-32.292,5.417c-18.76,0-33.17-4.337-43.223-13.019
			C251.166,433.553,245.16,420.906,243.202,404.286z"/>
	</g>
</g>
</svg>
