<?xml version="1.0" encoding="utf-8"?>
<!-- Generator: Adobe Illustrator 15.1.0, SVG Export Plug-In . SVG Version: 6.00 Build 0)  -->
<!DOCTYPE svg PUBLIC "-//W3C//DTD SVG 1.1//EN" "http://www.w3.org/Graphics/SVG/1.1/DTD/svg11.dtd">
<svg version="1.1" id="Layer_1" xmlns="http://www.w3.org/2000/svg" xmlns:xlink="http://www.w3.org/1999/xlink" x="0px" y="0px"
	 width="595px" height="842px" viewBox="0 0 595 842" enable-background="new 0 0 595 842" xml:space="preserve">
<rect x="33.719" y="132.45" fill-rule="evenodd" clip-rule="evenodd" fill="#FFFFFF" width="539.966" height="539.967"/>
<rect x="33.719" y="132.45" fill="none" stroke="#0072BB" stroke-width="1.001" stroke-miterlimit="22.926" width="539.966" height="539.967"/>
<path fill-rule="evenodd" clip-rule="evenodd" fill="#0072BB" d="M33.619,132.336l27.186,0.04l-5.173,0.585
	c-10.686,2.704-17.834,9.594-21.205,20.186l-0.808,4.291V132.336"/>
<path fill-rule="evenodd" clip-rule="evenodd" fill="#0072BB" d="M573.744,132.454l-27.068-0.078l5.057,0.703
	c10.685,2.704,17.833,9.594,21.205,20.186l0.807,4.291V132.454"/>
<path fill-rule="evenodd" clip-rule="evenodd" fill="#0072BB" d="M573.704,672.441l-27.188-0.04l5.175-0.585
	c10.686-2.704,17.834-9.594,21.205-20.186l0.808-4.292V672.441"/>
<path fill-rule="evenodd" clip-rule="evenodd" fill="#0072BB" d="M33.782,672.391l27.187,0.019l-5.174-0.644
	c-10.686-2.702-17.833-9.593-21.205-20.185l-0.808-4.292V672.391"/>
<path fill-rule="evenodd" clip-rule="evenodd" fill="#0072BB" d="M59.803,145.635H548.19c6.887,0,12.521,5.63,12.521,12.511v489.059
	c0,6.881-5.635,12.511-12.521,12.511H59.803c-6.888,0-12.523-5.63-12.523-12.511V158.146
	C47.28,151.265,52.915,145.635,59.803,145.635"/>
<path fill-rule="evenodd" clip-rule="evenodd" fill="#FFFFFF" d="M389.762,272.257l21.912-0.438
	c48.937,2.775,66.757,31.845,66.612,63.544v40.756l-50.836-0.438l-0.438-34.621c-1.022-12.125-5.551-20.743-26.732-21.474
	l-10.518,1.753V272.257"/>
<path fill-rule="evenodd" clip-rule="evenodd" fill="#FFFFFF" d="M317.015,283.213v51.273l-161.271,32.868
	c-35.789,4.967-37.396-35.205-15.339-45.576L317.015,283.213"/>
<path fill-rule="evenodd" clip-rule="evenodd" fill="#FFFFFF" d="M379.244,248.154l0.438,233.142
	c-14.314,95.681-139.066,86.187-146.809,0.438c-7.158-53.174-53.318-28.341-50.397-7.013l1.315,101.233l-51.274-0.439v-113.94
	c9.203-55.364,46.891-65.589,68.365-68.803c65.882-1.899,78.737,49.228,83.265,73.185c2.205,43.592,45.359,39.629,44.262,0
	l-1.753-218.241C331.915,212.803,377.491,213.826,379.244,248.154"/>
</svg>
