<?xml version="1.0" encoding="utf-8"?>
<!-- Generator: Adobe Illustrator 15.1.0, SVG Export Plug-In . SVG Version: 6.00 Build 0)  -->
<!DOCTYPE svg PUBLIC "-//W3C//DTD SVG 1.1//EN" "http://www.w3.org/Graphics/SVG/1.1/DTD/svg11.dtd">
<svg version="1.1" id="Layer_1" xmlns="http://www.w3.org/2000/svg" xmlns:xlink="http://www.w3.org/1999/xlink" x="0px" y="0px"
	 width="595px" height="842px" viewBox="0 0 595 842" enable-background="new 0 0 595 842" xml:space="preserve">
<rect x="33.719" y="132.45" fill-rule="evenodd" clip-rule="evenodd" fill="#FFFFFF" width="539.966" height="539.967"/>
<rect x="33.719" y="132.45" fill="none" stroke="#0072BB" stroke-width="1.001" stroke-miterlimit="22.926" width="539.966" height="539.967"/>
<path fill-rule="evenodd" clip-rule="evenodd" fill="#0072BB" d="M33.619,132.336l27.186,0.04l-5.173,0.585
	c-10.686,2.704-17.834,9.594-21.205,20.186l-0.808,4.291V132.336"/>
<path fill-rule="evenodd" clip-rule="evenodd" fill="#0072BB" d="M573.744,132.454l-27.068-0.078l5.057,0.703
	c10.685,2.704,17.833,9.594,21.205,20.186l0.807,4.291V132.454"/>
<path fill-rule="evenodd" clip-rule="evenodd" fill="#0072BB" d="M573.704,672.441l-27.188-0.04l5.175-0.585
	c10.686-2.704,17.834-9.594,21.205-20.186l0.808-4.292V672.441"/>
<path fill-rule="evenodd" clip-rule="evenodd" fill="#0072BB" d="M33.782,672.391l27.187,0.019l-5.174-0.644
	c-10.686-2.702-17.833-9.593-21.205-20.185l-0.808-4.292V672.391"/>
<path fill-rule="evenodd" clip-rule="evenodd" fill="#0072BB" d="M59.803,145.635H548.19c6.887,0,12.521,5.63,12.521,12.511v489.059
	c0,6.881-5.635,12.511-12.521,12.511H59.803c-6.888,0-12.523-5.63-12.523-12.511V158.146
	C47.28,151.265,52.915,145.635,59.803,145.635"/>
<path fill-rule="evenodd" clip-rule="evenodd" fill="#FFFFFF" d="M307.386,403.382c-56.974,5.372-66.139,40.997-65.397,70.603
	c-4.562,3.183-7.852,7.321-8.913,13.369l2.228,21.011c2.759,6.578,6.155,12.839,12.734,16.553
	c7.746,14.855,9.125,30.029,13.051,44.884c-0.742,6.579-4.668,8.701-9.868,9.232l-57.618,0.955
	c-44.248,6.048-54.753,27.058-62.074,46.795l176.993,0.317l176.903,0.318c-14.889-38.549-43.753-48.739-86.592-47.83l-35.098-0.129
	c-6.286-1.354-7.64-6.817-8.375-10.842c4.07-14.965,7.113-29.107,12.83-43.044c5.713-4.079,9.987-9.187,12.823-15.32l2.27-23.143
	c0.089-5.294-4.137-9.149-8.98-12.184c-0.628-31.85-7.303-63.563-62.382-71.013L307.386,403.382"/>
<path fill-rule="evenodd" clip-rule="evenodd" fill="#FFFFFF" d="M157.659,451.847l4.737-11.647
	c1.253-3.082,5.221-4.726,8.818-3.651c3.596,1.074,5.513,4.476,4.26,7.559l-4.737,11.647c-1.254,3.082-5.222,4.725-8.818,3.651
	C158.322,458.331,156.406,454.93,157.659,451.847"/>
<path fill-rule="evenodd" clip-rule="evenodd" fill="#FFFFFF" d="M171.345,417.486l4.737-11.648
	c1.253-3.083,5.221-4.726,8.818-3.651c3.596,1.074,5.513,4.475,4.26,7.557l-4.737,11.648c-1.254,3.083-5.222,4.726-8.818,3.651
	C172.008,423.969,170.091,420.568,171.345,417.486"/>
<path fill-rule="evenodd" clip-rule="evenodd" fill="#FFFFFF" d="M185.723,382.838l4.736-11.648
	c1.254-3.083,5.222-4.726,8.818-3.651c3.597,1.074,5.514,4.475,4.26,7.557l-4.737,11.648c-1.253,3.083-5.221,4.726-8.818,3.651
	C186.386,389.321,184.469,385.92,185.723,382.838"/>
<path fill-rule="evenodd" clip-rule="evenodd" fill="#FFFFFF" d="M199.409,348.476l4.736-11.648
	c1.254-3.082,5.222-4.725,8.818-3.651c3.597,1.074,5.514,4.475,4.26,7.558l-4.737,11.648c-1.253,3.082-5.221,4.725-8.818,3.651
	C200.072,354.959,198.155,351.559,199.409,348.476"/>
<path fill-rule="evenodd" clip-rule="evenodd" fill="#FFFFFF" d="M213.005,314.334l4.737-11.648c1.253-3.082,5.222-4.725,8.818-3.65
	c3.596,1.074,5.513,4.475,4.26,7.557l-4.737,11.648c-1.253,3.083-5.222,4.725-8.818,3.651
	C213.669,320.818,211.751,317.417,213.005,314.334"/>
<path fill-rule="evenodd" clip-rule="evenodd" fill="#FFFFFF" d="M227.126,279.61l4.737-11.648c1.253-3.082,5.222-4.725,8.818-3.651
	c3.597,1.074,5.513,4.475,4.26,7.558l-4.737,11.647c-1.253,3.083-5.222,4.726-8.818,3.651
	C227.79,286.093,225.873,282.692,227.126,279.61"/>
<path fill-rule="evenodd" clip-rule="evenodd" fill="#FFFFFF" d="M143.114,486.199l4.737-11.648c1.254-3.083,5.222-4.725,8.818-3.65
	c3.596,1.073,5.514,4.475,4.26,7.557l-4.737,11.648c-1.253,3.082-5.221,4.726-8.818,3.65
	C143.778,492.682,141.861,489.281,143.114,486.199"/>
<path fill-rule="evenodd" clip-rule="evenodd" fill="#FFFFFF" d="M129.428,520.561l4.737-11.648
	c1.254-3.082,5.222-4.725,8.818-3.651c3.597,1.075,5.514,4.476,4.26,7.559l-4.737,11.647c-1.253,3.082-5.221,4.726-8.818,3.651
	C130.092,527.044,128.175,523.643,129.428,520.561"/>
<path fill-rule="evenodd" clip-rule="evenodd" fill="#FFFFFF" d="M117.37,555.638l4.737-11.648c1.254-3.082,5.222-4.726,8.818-3.651
	c3.597,1.075,5.514,4.475,4.26,7.559l-4.737,11.647c-1.253,3.082-5.221,4.725-8.818,3.651
	C118.034,562.121,116.117,558.72,117.37,555.638"/>
<path fill-rule="evenodd" clip-rule="evenodd" fill="#FFFFFF" d="M501.62,556.734l-4.737-11.648
	c-1.254-3.083-5.222-4.726-8.817-3.651c-3.598,1.074-5.515,4.476-4.261,7.558l4.737,11.647c1.253,3.083,5.221,4.727,8.818,3.651
	C500.956,563.217,502.873,559.816,501.62,556.734"/>
<path fill-rule="evenodd" clip-rule="evenodd" fill="#FFFFFF" d="M459.799,452.554l-4.736-11.647
	c-1.254-3.083-5.222-4.727-8.818-3.651c-3.596,1.074-5.513,4.476-4.26,7.558l4.736,11.647c1.254,3.083,5.223,4.725,8.818,3.651
	C459.136,459.037,461.053,455.636,459.799,452.554"/>
<path fill-rule="evenodd" clip-rule="evenodd" fill="#FFFFFF" d="M446.113,418.192l-4.737-11.648
	c-1.253-3.082-5.221-4.725-8.818-3.651c-3.596,1.074-5.513,4.475-4.259,7.557l4.736,11.648c1.254,3.082,5.222,4.726,8.817,3.651
	C445.45,424.675,447.367,421.275,446.113,418.192"/>
<path fill-rule="evenodd" clip-rule="evenodd" fill="#FFFFFF" d="M431.736,383.544l-4.737-11.648
	c-1.254-3.082-5.222-4.725-8.818-3.651c-3.597,1.074-5.514,4.475-4.26,7.558l4.737,11.648c1.253,3.082,5.221,4.725,8.817,3.651
	C431.072,390.027,432.989,386.626,431.736,383.544"/>
<path fill-rule="evenodd" clip-rule="evenodd" fill="#FFFFFF" d="M418.05,349.183l-4.737-11.648
	c-1.254-3.083-5.222-4.726-8.817-3.651c-3.597,1.074-5.514,4.475-4.26,7.557l4.736,11.648c1.253,3.083,5.222,4.725,8.818,3.651
	C417.386,355.666,419.303,352.265,418.05,349.183"/>
<path fill-rule="evenodd" clip-rule="evenodd" fill="#FFFFFF" d="M404.453,315.041l-4.737-11.648
	c-1.253-3.083-5.221-4.726-8.817-3.651c-3.597,1.074-5.514,4.475-4.261,7.557l4.737,11.648c1.253,3.083,5.222,4.726,8.818,3.651
	C403.79,321.524,405.706,318.123,404.453,315.041"/>
<path fill-rule="evenodd" clip-rule="evenodd" fill="#FFFFFF" d="M390.332,280.316l-4.737-11.648
	c-1.253-3.082-5.222-4.725-8.817-3.651c-3.597,1.075-5.514,4.475-4.261,7.558l4.737,11.648c1.253,3.082,5.222,4.725,8.818,3.651
	C389.669,286.799,391.585,283.398,390.332,280.316"/>
<path fill-rule="evenodd" clip-rule="evenodd" fill="#FFFFFF" d="M474.344,486.905l-4.736-11.648
	c-1.255-3.082-5.223-4.725-8.818-3.65c-3.597,1.073-5.513,4.475-4.26,7.558l4.736,11.648c1.253,3.081,5.222,4.725,8.818,3.65
	C473.68,493.388,475.597,489.987,474.344,486.905"/>
<path fill-rule="evenodd" clip-rule="evenodd" fill="#FFFFFF" d="M488.03,521.267l-4.737-11.647
	c-1.254-3.083-5.222-4.727-8.818-3.651c-3.596,1.074-5.513,4.476-4.26,7.558l4.737,11.647c1.253,3.083,5.221,4.726,8.817,3.651
	S489.283,524.349,488.03,521.267"/>
<path fill-rule="evenodd" clip-rule="evenodd" fill="#FFFFFF" d="M205.479,458.732l3.29-12.01c0.871-3.178,4.617-5.167,8.325-4.421
	c3.707,0.746,6.029,3.957,5.158,7.134l-3.29,12.01c-0.871,3.178-4.617,5.167-8.325,4.421
	C206.93,465.12,204.608,461.909,205.479,458.732"/>
<path fill-rule="evenodd" clip-rule="evenodd" fill="#FFFFFF" d="M214.899,423.332l3.29-12.009c0.87-3.177,4.616-5.167,8.324-4.421
	c3.708,0.746,6.029,3.957,5.159,7.135l-3.291,12.008c-0.87,3.178-4.616,5.167-8.324,4.421
	C216.35,429.72,214.028,426.51,214.899,423.332"/>
<path fill-rule="evenodd" clip-rule="evenodd" fill="#FFFFFF" d="M224.971,387.586l3.29-12.009c0.871-3.178,4.617-5.167,8.325-4.421
	c3.707,0.746,6.029,3.957,5.158,7.135l-3.29,12.008c-0.87,3.178-4.616,5.167-8.324,4.421
	C226.422,393.974,224.101,390.764,224.971,387.586"/>
<path fill-rule="evenodd" clip-rule="evenodd" fill="#FFFFFF" d="M234.391,352.186l3.29-12.008c0.871-3.178,4.617-5.168,8.324-4.422
	c3.708,0.747,6.03,3.957,5.159,7.135l-3.29,12.009c-0.871,3.177-4.617,5.167-8.325,4.421
	C235.842,358.574,233.52,355.364,234.391,352.186"/>
<path fill-rule="evenodd" clip-rule="evenodd" fill="#FFFFFF" d="M243.749,317.013l3.29-12.009c0.87-3.177,4.616-5.167,8.324-4.421
	c3.708,0.747,6.029,3.957,5.159,7.135l-3.291,12.009c-0.87,3.177-4.616,5.167-8.324,4.421S242.878,320.191,243.749,317.013"/>
<path fill-rule="evenodd" clip-rule="evenodd" fill="#FFFFFF" d="M253.557,281.214l3.29-12.009c0.87-3.178,4.616-5.167,8.324-4.421
	s6.029,3.957,5.159,7.134l-3.291,12.009c-0.87,3.178-4.616,5.167-8.324,4.421C255.007,287.602,252.686,284.391,253.557,281.214"/>
<path fill-rule="evenodd" clip-rule="evenodd" fill="#FFFFFF" d="M195.204,494.198l3.29-12.009c0.871-3.179,4.617-5.167,8.325-4.422
	c3.708,0.747,6.029,3.957,5.158,7.136l-3.29,12.008c-0.871,3.178-4.617,5.168-8.324,4.422
	C196.655,500.586,194.334,497.376,195.204,494.198"/>
<path fill-rule="evenodd" clip-rule="evenodd" fill="#FFFFFF" d="M185.785,529.597l3.29-12.008c0.87-3.178,4.616-5.167,8.324-4.421
	s6.029,3.956,5.159,7.134l-3.291,12.009c-0.87,3.179-4.616,5.167-8.324,4.422C187.235,535.986,184.914,532.775,185.785,529.597"/>
<path fill-rule="evenodd" clip-rule="evenodd" fill="#FFFFFF" d="M173.727,564.674l3.29-12.008c0.871-3.178,4.617-5.167,8.324-4.421
	c3.708,0.746,6.029,3.956,5.159,7.134l-3.29,12.009c-0.871,3.179-4.617,5.167-8.325,4.421S172.856,567.852,173.727,564.674"/>
<path fill-rule="evenodd" clip-rule="evenodd" fill="#FFFFFF" d="M445.263,565.771l-3.29-12.01c-0.87-3.178-4.615-5.167-8.323-4.421
	s-6.029,3.957-5.159,7.135l3.291,12.009c0.87,3.178,4.616,5.167,8.324,4.421C443.813,572.159,446.134,568.949,445.263,565.771"/>
<path fill-rule="evenodd" clip-rule="evenodd" fill="#FFFFFF" d="M413.793,460.144l-3.29-12.009
	c-0.871-3.178-4.617-5.167-8.325-4.421c-3.707,0.747-6.028,3.957-5.158,7.135l3.29,12.009c0.871,3.178,4.617,5.168,8.325,4.422
	C412.342,466.532,414.664,463.322,413.793,460.144"/>
<path fill-rule="evenodd" clip-rule="evenodd" fill="#FFFFFF" d="M404.373,424.744l-3.29-12.008
	c-0.87-3.178-4.616-5.168-8.324-4.421c-3.708,0.746-6.028,3.956-5.159,7.134l3.291,12.009c0.87,3.178,4.616,5.167,8.324,4.421
	C402.922,431.133,405.244,427.922,404.373,424.744"/>
<path fill-rule="evenodd" clip-rule="evenodd" fill="#FFFFFF" d="M394.301,388.998l-3.291-12.009
	c-0.87-3.177-4.616-5.167-8.324-4.42c-3.707,0.746-6.028,3.956-5.157,7.134l3.29,12.009c0.869,3.177,4.615,5.167,8.323,4.421
	C392.85,395.387,395.171,392.176,394.301,388.998"/>
<path fill-rule="evenodd" clip-rule="evenodd" fill="#FFFFFF" d="M384.881,353.599l-3.29-12.009
	c-0.871-3.178-4.617-5.167-8.325-4.421c-3.707,0.746-6.028,3.956-5.157,7.134l3.29,12.009c0.87,3.178,4.616,5.167,8.324,4.421
	C383.43,359.987,385.752,356.776,384.881,353.599"/>
<path fill-rule="evenodd" clip-rule="evenodd" fill="#FFFFFF" d="M375.523,318.426l-3.29-12.009
	c-0.87-3.178-4.616-5.167-8.324-4.421s-6.029,3.957-5.159,7.135l3.291,12.008c0.87,3.178,4.616,5.167,8.324,4.421
	S376.394,321.604,375.523,318.426"/>
<path fill-rule="evenodd" clip-rule="evenodd" fill="#FFFFFF" d="M365.715,282.626l-3.29-12.008
	c-0.87-3.178-4.616-5.168-8.324-4.422c-3.708,0.747-6.028,3.957-5.158,7.135l3.291,12.009c0.869,3.178,4.615,5.167,8.323,4.421
	C364.265,289.014,366.586,285.804,365.715,282.626"/>
<path fill-rule="evenodd" clip-rule="evenodd" fill="#FFFFFF" d="M424.068,495.611l-3.29-12.01
	c-0.871-3.178-4.617-5.167-8.325-4.421s-6.029,3.956-5.158,7.135l3.29,12.009c0.871,3.178,4.617,5.167,8.324,4.421
	C422.617,501.999,424.938,498.788,424.068,495.611"/>
<path fill-rule="evenodd" clip-rule="evenodd" fill="#FFFFFF" d="M433.487,531.01l-3.29-12.009c-0.87-3.177-4.616-5.167-8.324-4.421
	s-6.029,3.957-5.159,7.135l3.291,12.009c0.87,3.178,4.616,5.166,8.324,4.42C432.037,537.398,434.358,534.188,433.487,531.01"/>
<path fill-rule="evenodd" clip-rule="evenodd" fill="#FFFFFF" d="M258.682,390.501l1.86-12.232c0.493-3.237,3.986-5.54,7.763-5.117
	c3.776,0.422,6.463,3.415,5.971,6.652l-1.861,12.232c-0.493,3.237-3.986,5.539-7.762,5.117
	C260.876,396.731,258.189,393.738,258.682,390.501"/>
<path fill-rule="evenodd" clip-rule="evenodd" fill="#FFFFFF" d="M263.89,354.468l1.861-12.232c0.492-3.237,3.985-5.54,7.762-5.118
	c3.777,0.422,6.464,3.416,5.971,6.653l-1.861,12.232c-0.492,3.236-3.985,5.54-7.762,5.117
	C266.084,360.698,263.398,357.705,263.89,354.468"/>
<path fill-rule="evenodd" clip-rule="evenodd" fill="#FFFFFF" d="M269.063,318.666l1.861-12.232c0.493-3.237,3.986-5.54,7.762-5.118
	c3.777,0.422,6.464,3.416,5.972,6.653l-1.862,12.231c-0.492,3.237-3.985,5.54-7.761,5.118
	C271.258,324.896,268.571,321.903,269.063,318.666"/>
<path fill-rule="evenodd" clip-rule="evenodd" fill="#FFFFFF" d="M274.611,282.201l1.861-12.231c0.493-3.237,3.986-5.54,7.762-5.118
	c3.777,0.422,6.464,3.415,5.971,6.652l-1.861,12.232c-0.492,3.237-3.985,5.54-7.762,5.118
	C276.806,288.432,274.119,285.438,274.611,282.201"/>
<path fill-rule="evenodd" clip-rule="evenodd" fill="#FFFFFF" d="M356.091,391.913l-1.86-12.231
	c-0.493-3.237-3.985-5.54-7.763-5.118c-3.776,0.422-6.464,3.416-5.971,6.652l1.861,12.232c0.491,3.237,3.984,5.54,7.762,5.118
	C353.896,398.144,356.583,395.15,356.091,391.913"/>
<path fill-rule="evenodd" clip-rule="evenodd" fill="#FFFFFF" d="M350.883,355.88l-1.861-12.231
	c-0.492-3.237-3.985-5.54-7.762-5.118c-3.776,0.422-6.464,3.416-5.972,6.653l1.861,12.231c0.492,3.237,3.985,5.54,7.762,5.118
	C348.688,362.111,351.375,359.117,350.883,355.88"/>
<path fill-rule="evenodd" clip-rule="evenodd" fill="#FFFFFF" d="M345.709,320.078l-1.861-12.232
	c-0.491-3.236-3.984-5.539-7.762-5.117s-6.463,3.416-5.971,6.652l1.86,12.232c0.492,3.237,3.985,5.54,7.763,5.118
	C343.515,326.309,346.202,323.315,345.709,320.078"/>
<path fill-rule="evenodd" clip-rule="evenodd" fill="#FFFFFF" d="M340.161,283.614l-1.861-12.232
	c-0.492-3.237-3.984-5.54-7.762-5.118c-3.777,0.422-6.463,3.416-5.971,6.653l1.86,12.232c0.493,3.236,3.985,5.539,7.763,5.117
	C337.967,289.844,340.654,286.851,340.161,283.614"/>
<path fill-rule="evenodd" clip-rule="evenodd" fill="#FFFFFF" d="M311.188,392.6l0.172-12.334c0.046-3.264-3.033-5.966-6.843-6.005
	c-3.808-0.039-6.96,2.6-7.006,5.864l-0.171,12.334c-0.046,3.264,3.033,5.967,6.842,6.005
	C307.99,398.503,311.143,395.864,311.188,392.6"/>
<path fill-rule="evenodd" clip-rule="evenodd" fill="#FFFFFF" d="M311.964,356.298l0.17-12.334c0.046-3.264-3.033-5.967-6.841-6.005
	c-3.809-0.039-6.962,2.6-7.007,5.863l-0.171,12.335c-0.045,3.264,3.033,5.966,6.842,6.005
	C308.765,362.201,311.918,359.562,311.964,356.298"/>
<path fill-rule="evenodd" clip-rule="evenodd" fill="#FFFFFF" d="M312.735,320.229l0.172-12.335
	c0.045-3.264-3.034-5.966-6.842-6.005c-3.81-0.039-6.963,2.6-7.008,5.864l-0.171,12.334c-0.045,3.264,3.033,5.966,6.842,6.005
	S312.69,323.492,312.735,320.229"/>
<path fill-rule="evenodd" clip-rule="evenodd" fill="#FFFFFF" d="M313.245,283.458l0.172-12.335
	c0.045-3.264-3.034-5.966-6.842-6.005c-3.81-0.038-6.962,2.6-7.007,5.864l-0.171,12.335c-0.046,3.264,3.033,5.966,6.842,6.005
	C310.047,289.361,313.2,286.722,313.245,283.458"/>
<path fill-rule="evenodd" clip-rule="evenodd" fill="#FFFFFF" d="M327.247,184.796h-38.61l-0.48,12.71l-61.631,44.845
	c-4.716,6.635-0.08,12.07,4.556,11.99l153.479,1.199c8.154,0.08,10.792-6.554,3.358-13.429l-60.912-44.365L327.247,184.796"/>
</svg>
