<?xml version="1.0" encoding="utf-8"?>
<!-- Generator: Adobe Illustrator 15.1.0, SVG Export Plug-In . SVG Version: 6.00 Build 0)  -->
<!DOCTYPE svg PUBLIC "-//W3C//DTD SVG 1.1//EN" "http://www.w3.org/Graphics/SVG/1.1/DTD/svg11.dtd">
<svg version="1.1" id="Layer_1" xmlns="http://www.w3.org/2000/svg" xmlns:xlink="http://www.w3.org/1999/xlink" x="0px" y="0px"
	 width="595px" height="842px" viewBox="0 0 595 842" enable-background="new 0 0 595 842" xml:space="preserve">
<rect x="33.719" y="132.45" fill-rule="evenodd" clip-rule="evenodd" fill="#FFFFFF" width="539.966" height="539.967"/>
<rect x="33.719" y="132.45" fill="none" stroke="#0072BB" stroke-width="1.001" stroke-miterlimit="22.926" width="539.966" height="539.967"/>
<path fill-rule="evenodd" clip-rule="evenodd" fill="#0072BB" d="M33.619,132.336l27.186,0.04l-5.173,0.585
	c-10.686,2.704-17.834,9.594-21.205,20.186l-0.808,4.291V132.336"/>
<path fill-rule="evenodd" clip-rule="evenodd" fill="#0072BB" d="M573.744,132.454l-27.068-0.078l5.057,0.703
	c10.685,2.704,17.833,9.594,21.205,20.186l0.807,4.291V132.454"/>
<path fill-rule="evenodd" clip-rule="evenodd" fill="#0072BB" d="M573.704,672.441l-27.188-0.04l5.175-0.585
	c10.686-2.704,17.834-9.594,21.205-20.186l0.808-4.292V672.441"/>
<path fill-rule="evenodd" clip-rule="evenodd" fill="#0072BB" d="M33.782,672.391l27.187,0.019l-5.174-0.644
	c-10.686-2.702-17.833-9.593-21.205-20.185l-0.808-4.292V672.391"/>
<path fill-rule="evenodd" clip-rule="evenodd" fill="#0072BB" d="M59.803,145.635H548.19c6.887,0,12.521,5.63,12.521,12.511v489.059
	c0,6.881-5.635,12.511-12.521,12.511H59.803c-6.888,0-12.523-5.63-12.523-12.511V158.146
	C47.28,151.265,52.915,145.635,59.803,145.635"/>
<path fill-rule="evenodd" clip-rule="evenodd" fill="#FFFFFF" d="M304.32,198.227c37.778-0.324,68.748,24.646,54.966,95.34
	c-3.567,22.699-35.347,54.155-10.701,68.099c14.106,3.729,25.294,9.404,36.481,17.025c26.104,12.971,39.076,38.59,52.048,59.344
	h-6.324c-40.373-10.377-47.183-33.888-96.313-9.242c-16.376,8.755-30.807,16.538-56.424,0c-19.53-5.765-26.105-24.484-68.586-0.973
	c-11.999,7.782-23.511,11.674-36.482,8.756c15.404-44.751,50.264-49.129,84.152-64.208c13.782-4.054,39.724-11.513,16.538-29.186
	c-19.295-4.054-20.105-4.216-21.403-22.862c-7.134-14.268-7.458-28.051-5.35-42.805l0.973-9.242
	c-18.971-37.779-1.946-50.751,10.214-59.344C273.513,202.929,288.43,199.362,304.32,198.227"/>
<path fill-rule="evenodd" clip-rule="evenodd" fill="#FFFFFF" d="M114.614,441.926c5.513,0,12.971,0.974,17.025,3.893
	c37.779,17.349,46.417,20.416,63.766,13.93c49.423-28.126,60.328-17.025,88.971-2.256c12.161,2.432,20.917,8.756,36.969,3.405
	c44.103-24.809,57.074-23.35,92.421-1.946c18.971,7.783,29.186,5.351,35.51,0.973c15.24-5.837,32.428-15.079,49.129-18.483
	l0.485,53.02c-9.655-1.728-16.435,3.45-25.028,6.503c-39.429,22.148-52.986,13.005-88.309-3.584
	c-16.32-7.703-26.487-2.525-39.09,2.787c-33.804,20.555-46.626,18.268-87.601-3.939c-13.03-2.76-20.217-5.784-36.434,2.611
	c-47.647,23.004-45.36,18.651-86.366,0.487c-6.707-4.071-14.21-5.22-21.448-5.838V441.926"/>
<path fill-rule="evenodd" clip-rule="evenodd" fill="#FFFFFF" d="M114.614,531.701c5.513,0,12.971,0.973,17.025,3.892
	c37.779,17.35,46.417,20.416,63.766,13.931c49.423-28.126,60.328-17.025,88.971-2.257c12.161,2.433,20.917,8.757,36.969,3.405
	c44.103-24.808,57.074-23.349,92.421-1.946c18.971,7.783,29.186,5.352,35.51,0.974c15.24-5.837,32.428-15.079,49.129-18.484
	l0.485,53.021c-9.655-1.729-16.435,3.449-25.028,6.503c-39.429,22.147-52.986,13.005-88.309-3.584
	c-16.32-7.703-26.487-2.525-39.09,2.787c-33.804,20.555-46.626,18.268-87.601-3.939c-13.03-2.76-20.217-5.785-36.434,2.611
	c-47.647,23.004-45.36,18.65-86.366,0.485c-6.707-4.069-14.21-5.219-21.448-5.837V531.701"/>
</svg>
