<?xml version="1.0" encoding="utf-8"?>
<!-- Generator: Adobe Illustrator 15.1.0, SVG Export Plug-In . SVG Version: 6.00 Build 0)  -->
<!DOCTYPE svg PUBLIC "-//W3C//DTD SVG 1.1//EN" "http://www.w3.org/Graphics/SVG/1.1/DTD/svg11.dtd">
<svg version="1.1" id="Layer_1" xmlns="http://www.w3.org/2000/svg" xmlns:xlink="http://www.w3.org/1999/xlink" x="0px" y="0px"
	 width="595px" height="842px" viewBox="0 0 595 842" enable-background="new 0 0 595 842" xml:space="preserve">
<rect x="33.719" y="132.45" fill-rule="evenodd" clip-rule="evenodd" fill="#FFFFFF" width="539.966" height="539.967"/>
<rect x="33.719" y="132.45" fill="none" stroke="#0072BB" stroke-width="1.001" stroke-miterlimit="22.926" width="539.966" height="539.967"/>
<path fill-rule="evenodd" clip-rule="evenodd" fill="#0072BB" d="M33.619,132.336l27.186,0.04l-5.173,0.585
	c-10.686,2.704-17.834,9.594-21.205,20.186l-0.808,4.291V132.336"/>
<path fill-rule="evenodd" clip-rule="evenodd" fill="#0072BB" d="M573.744,132.454l-27.068-0.078l5.057,0.703
	c10.685,2.704,17.833,9.594,21.205,20.186l0.807,4.291V132.454"/>
<path fill-rule="evenodd" clip-rule="evenodd" fill="#0072BB" d="M573.704,672.441l-27.188-0.04l5.175-0.585
	c10.686-2.704,17.834-9.594,21.205-20.186l0.808-4.292V672.441"/>
<path fill-rule="evenodd" clip-rule="evenodd" fill="#0072BB" d="M33.782,672.391l27.187,0.019l-5.174-0.644
	c-10.686-2.702-17.833-9.593-21.205-20.185l-0.808-4.292V672.391"/>
<path fill-rule="evenodd" clip-rule="evenodd" fill="#0072BB" d="M59.803,145.635H548.19c6.887,0,12.521,5.63,12.521,12.511v489.059
	c0,6.881-5.635,12.511-12.521,12.511H59.803c-6.888,0-12.523-5.63-12.523-12.511V158.146
	C47.28,151.265,52.915,145.635,59.803,145.635"/>
<path fill-rule="evenodd" clip-rule="evenodd" fill="#FFFFFF" d="M80.282,545.952v20.519c15.793,11.689,34.197,30.468,68.644,0.373
	c23.627-22.136,53.97-8.083,57.825,0c39.421,37.68,62.053,3.73,71.256,0c24.995-23.006,46.26-7.959,57.079,0.373
	c33.203,35.316,58.944,9.451,72.748-0.373c32.083-24.001,42.902-5.099,55.96-0.373c29.845,35.068,60.437,10.818,69.39,0v-20.519
	c-17.037,8.208-31.835,27.979-65.659,1.119c-27.234-30.715-49.991-13.307-68.271-0.373c-9.078,10.57-32.332,25.244-58.571,0.373
	c-7.834-7.461-32.83-32.083-68.271-1.119c-8.829,7.213-27.289,25.851-61.183,0.373c-10.302-13.947-44.271-24.747-66.406,0.373
	C118.832,570.823,93.961,553.911,80.282,545.952"/>
<path fill-rule="evenodd" clip-rule="evenodd" fill="#FFFFFF" d="M77.216,589.085v20.626c15.876,11.75,34.376,30.626,69.002,0.375
	c23.751-22.251,54.251-8.125,58.127,0c39.626,37.876,62.376,3.75,71.626,0c25.125-23.126,46.501-8,57.376,0.375
	c33.376,35.501,59.252,9.5,73.127-0.375c32.251-24.126,43.126-5.125,56.251-0.375c30.001,35.251,60.753,10.875,69.753,0v-20.626
	c-17.125,8.251-32.002,28.126-66.002,1.125c-27.376-30.875-49.877-13.375-68.252-0.375c-9.876,10.251-32.876,25.376-59.252,0.375
	c-7.875-7.5-33-32.251-68.626-1.125c-8.875,7.251-28.251,27.626-61.501,0.375c-11.176-15.25-44.502-24.875-66.752,0.375
	C115.967,614.086,90.966,597.085,77.216,589.085"/>
<path fill-rule="evenodd" clip-rule="evenodd" fill="#FFFFFF" d="M215.074,522.123c-13.483-15.93-25.379-29.944-36.113-47.837
	l354.595-0.129c-1.836,19.296-13.094,54.105-27.886,67.513c-4.248,3.75-15.01-3.867-18.925-6.596
	c-34.665-24.169-45.438-31.056-82.146-5.487c-9.876,10.251-32.499,26.13-58.875,1.129c-7.875-7.5-33.001-32.251-68.626-1.125
	C268.223,536.841,248.455,549.365,215.074,522.123"/>
<path fill-rule="evenodd" clip-rule="evenodd" fill="#FFFFFF" d="M76.87,474.096h81.267v46.72
	c-27.089-5.104-21.2,35.726-81.267,10.992V474.096"/>
<path fill-rule="evenodd" clip-rule="evenodd" fill="#FFFFFF" d="M145.574,448.184l-0.785,18.452h-22.378v-18.452
	c-23.687-9.553-10.862-25.779,12.563-25.126C174.627,425.152,156.174,448.446,145.574,448.184"/>
<polyline fill-rule="evenodd" clip-rule="evenodd" fill="#FFFFFF" points="350.125,183.116 350.125,447.29 505.78,447.29 
	350.125,183.116 "/>
</svg>
