<?xml version="1.0" encoding="utf-8"?>
<!-- Generator: Adobe Illustrator 25.2.1, SVG Export Plug-In . SVG Version: 6.00 Build 0)  -->
<svg version="1.1" xmlns="http://www.w3.org/2000/svg" xmlns:xlink="http://www.w3.org/1999/xlink" x="0px" y="0px"
	 viewBox="0 0 595 842" style="enable-background:new 0 0 595 842;" xml:space="preserve">
<style type="text/css">
	.st0{display:none;}
	.st1{display:inline;fill-rule:evenodd;clip-rule:evenodd;fill:#FFFFFF;}
	.st2{display:inline;fill:none;stroke:#0072BB;stroke-width:1.001;stroke-miterlimit:22.926;}
	.st3{display:inline;fill-rule:evenodd;clip-rule:evenodd;fill:#0072BB;}
	.st4{display:inline;}
	.st5{fill:#ED7600;}
	.st6{fill:#FFFFFF;}
	.st7{fill:#FEDB41;}
	.st8{fill:#FCBF29;}
	.st9{fill:#57555C;}
	.st10{fill:#FD4E26;}
	.st11{fill:#3C3A41;}
	.st12{fill:#FD3018;}
	.st13{fill:#0071B8;}
	.st14{fill:none;stroke:#0071B8;stroke-width:7.100000e-02;}
</style>
<g id="Layer_1" class="st0">
	<rect x="33.7" y="132.4" class="st1" width="540" height="540"/>
	<rect x="33.7" y="132.4" class="st2" width="540" height="540"/>
	<path class="st3" d="M33.6,132.3l27.2,0l-5.2,0.6c-10.7,2.7-17.8,9.6-21.2,20.2l-0.8,4.3L33.6,132.3"/>
	<path class="st3" d="M573.7,132.5l-27.1-0.1l5.1,0.7c10.7,2.7,17.8,9.6,21.2,20.2l0.8,4.3L573.7,132.5"/>
	<path class="st3" d="M573.7,672.4l-27.2,0l5.2-0.6c10.7-2.7,17.8-9.6,21.2-20.2l0.8-4.3V672.4"/>
	<path class="st3" d="M33.8,672.4l27.2,0l-5.2-0.6c-10.7-2.7-17.8-9.6-21.2-20.2l-0.8-4.3L33.8,672.4"/>
	<path class="st3" d="M59.8,145.6h488.4c6.9,0,12.5,5.6,12.5,12.5v489.1c0,6.9-5.6,12.5-12.5,12.5H59.8c-6.9,0-12.5-5.6-12.5-12.5
		V158.1C47.3,151.3,52.9,145.6,59.8,145.6"/>
	<path class="st1" d="M432,238.8c2.2,0,4.1,1.8,4.1,4.1c0,2.3-1.8,4.1-4.1,4.1c-2.3,0-4.1-1.8-4.1-4.1
		C427.9,240.6,429.8,238.8,432,238.8 M375.9,211.3c14-11.3,31.9-14.4,47.8-21.5c11.2-5.9,8.3,3.5,5.4,4.5
		c-8.1,10.7-16.2,21.5-24.3,32.2c-2.5,10.6,6.6,3.6,9.9,5.5c33.4-6.8,64.9,1.5,94.9,6.8c4.5,2.3,8.1,3.8,11.7,6.7
		c2.2,2.1,0.9,6.3-0.6,6.6c-1.2,1.4-2,2.4-3.2,3.8c0.3,3.7,0.3,7.4,1.5,11.1c-0.3,3.5-2.9,5.6-5.4,6.9c-8.7,0.3-16.5,1.5-24.8,3.5
		c-1.9,1.9-1.6,3.3-0.7,5c8.2,2.9,18.6,6.3,26.7,9.2c11.7,9.8,1.2,23.2-4.4,17.6c-11.1-6.2-19.9-7.7-30.5-11.9
		c-45.5-13.5-51.8,27.4-54.7,35.4c-7.9-2.5-15.6-4.5-23.8-7.4c-13.2-1.2-23.4-6.8-34.4-11.6C377.4,285.8,377.1,245.8,375.9,211.3z"
		/>
	<path class="st1" d="M149.6,335.9c-14.8-24.2,9.6-35.9,13.3-15.2l2.3,4.2c5.1,7.6,9.6,15.2,14.7,22.8c0.6,5.3,5.3,8.1,7.7,12.1
		c28.4,25.2,116.1,24.3,152.8-6.6l14.8-18.5c22.6,7.3,45.3,14.7,67.9,22c-2.6,28.2-0.5,51.3-0.5,76.7c2,57.5,3.9,115,5.9,172.5
		c1.3,7.1,0,8.3-3.8,8.2c-6.1,0.1-12.1,0.2-18.2,0.3c-1.7,0.1-2.6-3.6-4.2-3.5c-2.7-29.5-5.2-59-7.9-88.5c-0.8-4.6-1.7-14-6.8,0
		c-6.4,29.5-12.7,59.2-20.6,88.4c-1.9,3.6-4.2,5.3-11,6.1c-4.5-0.2-9.1-0.4-13.6-0.6c-1.1-3.1-3.6-6.8-1.9-14.8
		c6.1-31.1,12.1-62.3,18.2-93.4c-0.8-5.7-2.4-11.2-9.5-13.3c-20.4-11.8-40.9-23.5-61.3-35.3c-39.1-18.2-50.4-0.8-51.6,5.8
		c-21.4,31-47.2,58.7-64.2,93.1c-4,19.9-0.9,36.3,0.3,54.4c-0.8,3.6-3.1,5.6-5,5.9c-4.2,0.5-8.5,1-12.7,1.5c-9-1.5-6.5-9.5-8.4-15.1
		c-0.4-14.9-1-29.8-1.1-44.7c5.9-11.1,11.9-22.2,17.8-33.3c6.8-11.3,1.7-14.9-7.5-3.7c-11.3,13.2-22.3,27.2-34.1,39.4
		c-4.5,17.8-5.6,34.5-5.6,52.6l-4.1,4.4c-5.8,0-11.1-0.1-16.8-0.1c-8.2-1.1-3.9-8.3-5.9-12.5c1.8-14.1,3.9-28.1,5.5-42.2
		c2.9-14.7,6.8-16.7,12.6-23.1c13.6-14.6,25.7-22.4,34-56.9c3.3-23.5,3.2-47.7,5.5-71.5c2.5-14.9,9.6-24,14.4-36
		c7.9-7.3,0.1-15.5-2.6-22.5L149.6,335.9"/>
</g>
<g id="Layer_2" class="st0">
	<g class="st4">
		<path class="st5" d="M33.6,132.3v540.1h540.1V132.3H33.6z M491.8,594.3h-69.1l0.4-285.6l-79,285.6h-69.1l-79.5-295.8v295.8h-70
			V200.7h119.4l64.9,275l64.7-275h117.3V594.3z"/>
		<polygon class="st6" points="491.8,200.7 491.8,594.3 422.6,594.3 423,308.7 344,594.3 274.8,594.3 195.4,298.5 195.4,594.3 
			125.4,594.3 125.4,200.7 244.8,200.7 309.7,475.6 374.5,200.7 		"/>
	</g>
</g>
<g id="Layer_4">
	<path class="st7" d="M549.8,554.3L359,184.7c-11.4-22.1-32-35.4-55.4-35.4s-44,13.3-55.4,35.4L57.8,554l-0.3,0.3
		c-11.1,21.4-10.4,46.6,1,67.7c11.4,20.8,32,33.4,54.4,33.4h381.6c22.5,0,43-12.6,54.4-33.4C560.3,601,560.9,575.8,549.8,554.3z"/>
	<path class="st8" d="M548.9,622.1c-11.4,20.8-32,33.4-54.4,33.4H303.6v-506c23.4,0,44,13.3,55.4,35.4l190.8,369.6
		C560.9,575.8,560.3,601,548.9,622.1z"/>
	<g>
		<path class="st9" d="M335.3,553.3c0,18.7-14.2,34-31.6,34S272,572,272,553.3c0-18.7,14.2-34,31.6-34S335.3,534.6,335.3,553.3z"/>
		<path class="st9" d="M335.3,264v170.2c0,18.7-14.2,34-31.6,34s-31.6-15.3-31.6-34V264c0-18.7,14.2-34,31.6-34
			S335.3,245.3,335.3,264z"/>
	</g>
	<path class="st10" d="M563.7,546.2L373,176.2c-14.2-27.2-40.2-43.9-69.3-43.9s-55.1,16.7-69.3,43.9L43.6,546.2
		c-13.6,26.5-13.3,58.2,1.3,84.4c14.2,26.2,39.9,41.9,68,41.9h381.6c28.2,0,53.8-15.7,68-41.9C577,604.4,577.4,572.7,563.7,546.2z
		 M535.3,613.2c-8.5,15.7-24,25.2-40.8,25.2H112.9c-16.8,0-32.3-9.5-40.8-25.2c-4.4-8.2-6.6-17-6.6-25.9c0-8.5,1.9-17,6-24.8
		l190.8-369.6c8.5-16.7,24-26.5,41.5-26.5s32.9,9.9,41.5,26.5l190.8,369.6C544.1,578.5,543.8,597.6,535.3,613.2z"/>
	<g>
		<path class="st11" d="M335.3,553.3c0,18.7-14.2,34-31.6,34v-68.1C321.1,519.3,335.3,534.6,335.3,553.3z"/>
		<path class="st11" d="M335.3,264v170.2c0,18.7-14.2,34-31.6,34V230C321.1,230,335.3,245.3,335.3,264z"/>
	</g>
	<path class="st12" d="M562.5,630.6c-14.2,26.2-39.9,41.9-68,41.9H303.6v-34h190.8c16.8,0,32.3-9.5,40.8-25.2
		c8.5-15.7,8.9-34.7,0.6-50.7L345.1,192.9c-8.5-16.7-24-26.5-41.5-26.5v-34c29.1,0,55.1,16.7,69.3,43.9l190.8,369.9
		C577.4,572.7,577,604.4,562.5,630.6z"/>
</g>
<g id="Layer_3" class="st0">
	<g id="layer1" class="st4">
		<path id="path6408" class="st13" d="M574,672.5V132.4H34.2v540.1H574z"/>
		<path id="path6410" class="st6" d="M34,154.3l0.4-4.2l1.4-3.7l1.9-4.2l2.7-3.3l3.3-2.7l3.7-2l4.1-1.3l4.2-0.4h496.6l4.4,0.4
			l4.1,1.3l3.8,2.1l3.3,2.8l2.7,3.4l1.9,3.9l1.2,4.2l0.2,4.3v496.3l-0.4,4.4l-1.3,4.2l-2.2,3.9l-2.9,3.2l-3.5,2.7l-3.9,1.9l-4.3,1
			l-4.4,0.1H58.4l-4.5-0.4l-4.5-1.3l-4.1-2.1l-3.6-2.8l-3.1-3.4l-2.4-4l-1.2-3.1l-0.6-3.6L34,154.3L34,154.3z"/>
		<path id="path6412" class="st13" d="M45.7,155.4l0.4-3l1.3-2.8l1.9-2.4l2.6-1.7l2.9-0.9l494.9-0.1l2.9,0.4l2.8,1.1l2.4,1.7
			l1.9,2.2l1.4,2.7l0.6,2.9v492.3l-0.4,3.2l-1.1,2.9l-1.9,2.6l-2.4,2.1l-3,1.3l-3.1,0.6H57.9l-3.2-0.5l-3-1.2l-2.6-2.1l-1.9-2.6
			l-1.2-3l-0.3-3.2L45.7,155.4L45.7,155.4z"/>
		<path id="path6414" class="st14" d="M574,672.5V132.4H34.2v540.1H574z"/>
		<path id="path6416" class="st6" d="M160.7,618.1v-431l206.3,0.5c60.6,5.9,112.2,54.3,114.9,119.6c0.8,68.5-45.2,126.1-120.5,130.7
			H240.5v180.2H160.7L160.7,618.1z"/>
		<path id="path6418" class="st13" d="M240.1,267.2l120.1,0.2c25.4,3.4,39.2,18.1,41.3,44.2c-1.3,28.1-16.2,43.4-44.7,45.7H240.1
			L240.1,267.2L240.1,267.2z"/>
	</g>
</g>
</svg>
