<?xml version="1.0" encoding="utf-8"?>
<!-- Generator: Adobe Illustrator 15.1.0, SVG Export Plug-In . SVG Version: 6.00 Build 0)  -->
<!DOCTYPE svg PUBLIC "-//W3C//DTD SVG 1.1//EN" "http://www.w3.org/Graphics/SVG/1.1/DTD/svg11.dtd">
<svg version="1.1" id="Layer_1" xmlns="http://www.w3.org/2000/svg" xmlns:xlink="http://www.w3.org/1999/xlink" x="0px" y="0px"
	 width="595px" height="842px" viewBox="0 0 595 842" enable-background="new 0 0 595 842" xml:space="preserve">
<rect x="33.719" y="132.45" fill-rule="evenodd" clip-rule="evenodd" fill="#FFFFFF" width="539.966" height="539.967"/>
<rect x="33.719" y="132.45" fill="none" stroke="#0072BB" stroke-width="1.001" stroke-miterlimit="22.926" width="539.966" height="539.967"/>
<path fill-rule="evenodd" clip-rule="evenodd" fill="#0072BB" d="M33.619,132.336l27.186,0.04l-5.173,0.585
	c-10.686,2.704-17.834,9.594-21.205,20.186l-0.808,4.291V132.336"/>
<path fill-rule="evenodd" clip-rule="evenodd" fill="#0072BB" d="M573.744,132.454l-27.068-0.078l5.057,0.703
	c10.685,2.704,17.833,9.594,21.205,20.186l0.807,4.291V132.454"/>
<path fill-rule="evenodd" clip-rule="evenodd" fill="#0072BB" d="M573.704,672.441l-27.188-0.04l5.175-0.585
	c10.686-2.704,17.834-9.594,21.205-20.186l0.808-4.292V672.441"/>
<path fill-rule="evenodd" clip-rule="evenodd" fill="#0072BB" d="M33.782,672.391l27.187,0.019l-5.174-0.644
	c-10.686-2.702-17.833-9.593-21.205-20.185l-0.808-4.292V672.391"/>
<path fill-rule="evenodd" clip-rule="evenodd" fill="#0072BB" d="M59.803,145.635H548.19c6.887,0,12.521,5.63,12.521,12.511v489.059
	c0,6.881-5.635,12.511-12.521,12.511H59.803c-6.888,0-12.523-5.63-12.523-12.511V158.146
	C47.28,151.265,52.915,145.635,59.803,145.635"/>
<polygon fill-rule="evenodd" clip-rule="evenodd" fill="#FFFFFF" points="417.109,519.996 424.314,520.422 431.525,520.144 "/>
<polygon fill="none" stroke="#FFFFFF" stroke-width="0.215" stroke-miterlimit="22.926" points="417.109,519.996 424.314,520.422 
	431.525,520.144 "/>
<polygon fill-rule="evenodd" clip-rule="evenodd" fill="#FFFFFF" points="438.676,519.165 417.109,519.996 431.525,520.144 "/>
<polygon fill="none" stroke="#FFFFFF" stroke-width="0.215" stroke-miterlimit="22.926" points="438.676,519.165 417.109,519.996 
	431.525,520.144 "/>
<polygon fill-rule="evenodd" clip-rule="evenodd" fill="#FFFFFF" points="409.98,518.871 417.109,519.996 438.676,519.165 "/>
<polygon fill="none" stroke="#FFFFFF" stroke-width="0.215" stroke-miterlimit="22.926" points="409.98,518.871 417.109,519.996 
	438.676,519.165 "/>
<polygon fill-rule="evenodd" clip-rule="evenodd" fill="#FFFFFF" points="445.697,517.495 409.98,518.871 438.676,519.165 "/>
<polygon fill="none" stroke="#FFFFFF" stroke-width="0.215" stroke-miterlimit="22.926" points="445.697,517.495 409.98,518.871 
	438.676,519.165 "/>
<polygon fill-rule="evenodd" clip-rule="evenodd" fill="#FFFFFF" points="402.995,517.056 409.98,518.871 445.697,517.495 "/>
<polygon fill="none" stroke="#FFFFFF" stroke-width="0.215" stroke-miterlimit="22.926" points="402.995,517.056 409.98,518.871 
	445.697,517.495 "/>
<polygon fill-rule="evenodd" clip-rule="evenodd" fill="#FFFFFF" points="452.522,515.149 402.995,517.056 445.697,517.495 "/>
<polygon fill="none" stroke="#FFFFFF" stroke-width="0.215" stroke-miterlimit="22.926" points="452.522,515.149 402.995,517.056 
	445.697,517.495 "/>
<polygon fill-rule="evenodd" clip-rule="evenodd" fill="#FFFFFF" points="396.219,514.571 402.995,517.056 452.522,515.149 "/>
<polygon fill="none" stroke="#FFFFFF" stroke-width="0.215" stroke-miterlimit="22.926" points="396.219,514.571 402.995,517.056 
	452.522,515.149 "/>
<polygon fill-rule="evenodd" clip-rule="evenodd" fill="#FFFFFF" points="459.087,512.149 396.219,514.571 452.522,515.149 "/>
<polygon fill="none" stroke="#FFFFFF" stroke-width="0.215" stroke-miterlimit="22.926" points="459.087,512.149 396.219,514.571 
	452.522,515.149 "/>
<polygon fill-rule="evenodd" clip-rule="evenodd" fill="#FFFFFF" points="389.718,511.438 396.219,514.571 459.087,512.149 "/>
<polygon fill="none" stroke="#FFFFFF" stroke-width="0.215" stroke-miterlimit="22.926" points="389.718,511.438 396.219,514.571 
	459.087,512.149 "/>
<polygon fill-rule="evenodd" clip-rule="evenodd" fill="#FFFFFF" points="465.327,508.525 389.718,511.438 459.087,512.149 "/>
<polygon fill="none" stroke="#FFFFFF" stroke-width="0.215" stroke-miterlimit="22.926" points="465.327,508.525 389.718,511.438 
	459.087,512.149 "/>
<polygon fill-rule="evenodd" clip-rule="evenodd" fill="#FFFFFF" points="383.552,507.685 389.718,511.438 465.327,508.525 "/>
<polygon fill="none" stroke="#FFFFFF" stroke-width="0.215" stroke-miterlimit="22.926" points="383.552,507.685 389.718,511.438 
	465.327,508.525 "/>
<polygon fill-rule="evenodd" clip-rule="evenodd" fill="#FFFFFF" points="471.186,504.31 383.552,507.685 465.327,508.525 "/>
<polygon fill="none" stroke="#FFFFFF" stroke-width="0.215" stroke-miterlimit="22.926" points="471.186,504.31 383.552,507.685 
	465.327,508.525 "/>
<polygon fill-rule="evenodd" clip-rule="evenodd" fill="#FFFFFF" points="377.782,503.35 383.552,507.685 471.186,504.31 "/>
<polygon fill="none" stroke="#FFFFFF" stroke-width="0.215" stroke-miterlimit="22.926" points="377.782,503.35 383.552,507.685 
	471.186,504.31 "/>
<polygon fill-rule="evenodd" clip-rule="evenodd" fill="#FFFFFF" points="476.606,499.544 377.782,503.35 471.186,504.31 "/>
<polygon fill="none" stroke="#FFFFFF" stroke-width="0.215" stroke-miterlimit="22.926" points="476.606,499.544 377.782,503.35 
	471.186,504.31 "/>
<polygon fill-rule="evenodd" clip-rule="evenodd" fill="#FFFFFF" points="372.461,498.474 377.782,503.35 476.606,499.544 "/>
<polygon fill="none" stroke="#FFFFFF" stroke-width="0.215" stroke-miterlimit="22.926" points="372.461,498.474 377.782,503.35 
	476.606,499.544 "/>
<polygon fill-rule="evenodd" clip-rule="evenodd" fill="#FFFFFF" points="481.536,494.273 372.461,498.474 476.606,499.544 "/>
<polygon fill="none" stroke="#FFFFFF" stroke-width="0.215" stroke-miterlimit="22.926" points="481.536,494.273 372.461,498.474 
	476.606,499.544 "/>
<polygon fill-rule="evenodd" clip-rule="evenodd" fill="#FFFFFF" points="367.64,493.104 372.461,498.474 481.536,494.273 "/>
<polygon fill="none" stroke="#FFFFFF" stroke-width="0.215" stroke-miterlimit="22.926" points="367.64,493.104 372.461,498.474 
	481.536,494.273 "/>
<polygon fill-rule="evenodd" clip-rule="evenodd" fill="#FFFFFF" points="485.929,488.547 367.64,493.104 481.536,494.273 "/>
<polygon fill="none" stroke="#FFFFFF" stroke-width="0.215" stroke-miterlimit="22.926" points="485.929,488.547 367.64,493.104 
	481.536,494.273 "/>
<polygon fill-rule="evenodd" clip-rule="evenodd" fill="#FFFFFF" points="363.365,487.289 367.64,493.104 485.929,488.547 "/>
<polygon fill="none" stroke="#FFFFFF" stroke-width="0.215" stroke-miterlimit="22.926" points="363.365,487.289 367.64,493.104 
	485.929,488.547 "/>
<polygon fill-rule="evenodd" clip-rule="evenodd" fill="#FFFFFF" points="425.313,486.259 363.365,487.289 485.929,488.547 "/>
<polygon fill="none" stroke="#FFFFFF" stroke-width="0.215" stroke-miterlimit="22.926" points="425.313,486.259 363.365,487.289 
	485.929,488.547 "/>
<polygon fill-rule="evenodd" clip-rule="evenodd" fill="#FFFFFF" points="420.087,485.947 363.365,487.289 425.313,486.259 "/>
<polygon fill="none" stroke="#FFFFFF" stroke-width="0.215" stroke-miterlimit="22.926" points="420.087,485.947 363.365,487.289 
	425.313,486.259 "/>
<polygon fill-rule="evenodd" clip-rule="evenodd" fill="#FFFFFF" points="430.532,485.884 425.313,486.259 485.929,488.547 "/>
<polygon fill="none" stroke="#FFFFFF" stroke-width="0.215" stroke-miterlimit="22.926" points="430.532,485.884 425.313,486.259 
	485.929,488.547 "/>
<polygon fill-rule="evenodd" clip-rule="evenodd" fill="#FFFFFF" points="414.949,484.952 363.365,487.289 420.087,485.947 "/>
<polygon fill="none" stroke="#FFFFFF" stroke-width="0.215" stroke-miterlimit="22.926" points="414.949,484.952 363.365,487.289 
	420.087,485.947 "/>
<polygon fill-rule="evenodd" clip-rule="evenodd" fill="#FFFFFF" points="435.658,484.829 430.532,485.884 485.929,488.547 "/>
<polygon fill="none" stroke="#FFFFFF" stroke-width="0.215" stroke-miterlimit="22.926" points="435.658,484.829 430.532,485.884 
	485.929,488.547 "/>
<polygon fill-rule="evenodd" clip-rule="evenodd" fill="#FFFFFF" points="409.985,483.294 363.365,487.289 414.949,484.952 "/>
<polygon fill="none" stroke="#FFFFFF" stroke-width="0.215" stroke-miterlimit="22.926" points="409.985,483.294 363.365,487.289 
	414.949,484.952 "/>
<polygon fill-rule="evenodd" clip-rule="evenodd" fill="#FFFFFF" points="440.602,483.111 435.658,484.829 485.929,488.547 "/>
<polygon fill="none" stroke="#FFFFFF" stroke-width="0.215" stroke-miterlimit="22.926" points="440.602,483.111 435.658,484.829 
	485.929,488.547 "/>
<polygon fill-rule="evenodd" clip-rule="evenodd" fill="#FFFFFF" points="489.744,482.421 440.602,483.111 485.929,488.547 "/>
<polygon fill="none" stroke="#FFFFFF" stroke-width="0.215" stroke-miterlimit="22.926" points="489.744,482.421 440.602,483.111 
	485.929,488.547 "/>
<polygon fill-rule="evenodd" clip-rule="evenodd" fill="#FFFFFF" points="359.677,481.086 363.365,487.289 409.985,483.294 "/>
<polygon fill="none" stroke="#FFFFFF" stroke-width="0.215" stroke-miterlimit="22.926" points="359.677,481.086 363.365,487.289 
	409.985,483.294 "/>
<polygon fill-rule="evenodd" clip-rule="evenodd" fill="#FFFFFF" points="405.281,480.999 359.677,481.086 409.985,483.294 "/>
<polygon fill="none" stroke="#FFFFFF" stroke-width="0.215" stroke-miterlimit="22.926" points="405.281,480.999 359.677,481.086 
	409.985,483.294 "/>
<polygon fill-rule="evenodd" clip-rule="evenodd" fill="#FFFFFF" points="445.278,480.76 440.602,483.111 489.744,482.421 "/>
<polygon fill="none" stroke="#FFFFFF" stroke-width="0.215" stroke-miterlimit="22.926" points="445.278,480.76 440.602,483.111 
	489.744,482.421 "/>
<polygon fill-rule="evenodd" clip-rule="evenodd" fill="#FFFFFF" points="400.919,478.107 359.677,481.086 405.281,480.999 "/>
<polygon fill="none" stroke="#FFFFFF" stroke-width="0.215" stroke-miterlimit="22.926" points="400.919,478.107 359.677,481.086 
	405.281,480.999 "/>
<polygon fill-rule="evenodd" clip-rule="evenodd" fill="#FFFFFF" points="449.606,477.816 445.278,480.76 489.744,482.421 "/>
<polygon fill="none" stroke="#FFFFFF" stroke-width="0.215" stroke-miterlimit="22.926" points="449.606,477.816 445.278,480.76 
	489.744,482.421 "/>
<polygon fill-rule="evenodd" clip-rule="evenodd" fill="#FFFFFF" points="492.945,475.952 449.606,477.816 489.744,482.421 "/>
<polygon fill="none" stroke="#FFFFFF" stroke-width="0.215" stroke-miterlimit="22.926" points="492.945,475.952 449.606,477.816 
	489.744,482.421 "/>
<polygon fill-rule="evenodd" clip-rule="evenodd" fill="#FFFFFF" points="396.973,474.669 359.677,481.086 400.919,478.107 "/>
<polygon fill="none" stroke="#FFFFFF" stroke-width="0.215" stroke-miterlimit="22.926" points="396.973,474.669 359.677,481.086 
	400.919,478.107 "/>
<polygon fill-rule="evenodd" clip-rule="evenodd" fill="#FFFFFF" points="356.61,474.553 359.677,481.086 396.973,474.669 "/>
<polygon fill="none" stroke="#FFFFFF" stroke-width="0.215" stroke-miterlimit="22.926" points="356.61,474.553 359.677,481.086 
	396.973,474.669 "/>
<polygon fill-rule="evenodd" clip-rule="evenodd" fill="#FFFFFF" points="453.51,474.331 449.606,477.816 492.945,475.952 "/>
<polygon fill="none" stroke="#FFFFFF" stroke-width="0.215" stroke-miterlimit="22.926" points="453.51,474.331 449.606,477.816 
	492.945,475.952 "/>
<polygon fill-rule="evenodd" clip-rule="evenodd" fill="#FFFFFF" points="393.511,470.744 356.61,474.553 396.973,474.669 "/>
<polygon fill="none" stroke="#FFFFFF" stroke-width="0.215" stroke-miterlimit="22.926" points="393.511,470.744 356.61,474.553 
	396.973,474.669 "/>
<polygon fill-rule="evenodd" clip-rule="evenodd" fill="#FFFFFF" points="456.925,470.365 453.51,474.331 492.945,475.952 "/>
<polygon fill="none" stroke="#FFFFFF" stroke-width="0.215" stroke-miterlimit="22.926" points="456.925,470.365 453.51,474.331 
	492.945,475.952 "/>
<polygon fill-rule="evenodd" clip-rule="evenodd" fill="#FFFFFF" points="495.5,469.203 456.925,470.365 492.945,475.952 "/>
<polygon fill="none" stroke="#FFFFFF" stroke-width="0.215" stroke-miterlimit="22.926" points="495.5,469.203 456.925,470.365 
	492.945,475.952 "/>
<polygon fill-rule="evenodd" clip-rule="evenodd" fill="#FFFFFF" points="354.194,467.752 356.61,474.553 393.511,470.744 "/>
<polygon fill="none" stroke="#FFFFFF" stroke-width="0.215" stroke-miterlimit="22.926" points="354.194,467.752 356.61,474.553 
	393.511,470.744 "/>
<polygon fill-rule="evenodd" clip-rule="evenodd" fill="#FFFFFF" points="390.593,466.398 354.194,467.752 393.511,470.744 "/>
<polygon fill="none" stroke="#FFFFFF" stroke-width="0.215" stroke-miterlimit="22.926" points="390.593,466.398 354.194,467.752 
	393.511,470.744 "/>
<polygon fill-rule="evenodd" clip-rule="evenodd" fill="#FFFFFF" points="459.79,465.985 456.925,470.365 495.5,469.203 "/>
<polygon fill="none" stroke="#FFFFFF" stroke-width="0.215" stroke-miterlimit="22.926" points="459.79,465.985 456.925,470.365 
	495.5,469.203 "/>
<polygon fill-rule="evenodd" clip-rule="evenodd" fill="#FFFFFF" points="497.386,462.236 459.79,465.985 495.5,469.203 "/>
<polygon fill="none" stroke="#FFFFFF" stroke-width="0.215" stroke-miterlimit="22.926" points="497.386,462.236 459.79,465.985 
	495.5,469.203 "/>
<polygon fill-rule="evenodd" clip-rule="evenodd" fill="#FFFFFF" points="388.27,461.708 354.194,467.752 390.593,466.398 "/>
<polygon fill="none" stroke="#FFFFFF" stroke-width="0.215" stroke-miterlimit="22.926" points="388.27,461.708 354.194,467.752 
	390.593,466.398 "/>
<polygon fill-rule="evenodd" clip-rule="evenodd" fill="#FFFFFF" points="462.057,461.268 459.79,465.985 497.386,462.236 "/>
<polygon fill="none" stroke="#FFFFFF" stroke-width="0.215" stroke-miterlimit="22.926" points="462.057,461.268 459.79,465.985 
	497.386,462.236 "/>
<polygon fill-rule="evenodd" clip-rule="evenodd" fill="#FFFFFF" points="352.451,460.748 354.194,467.752 388.27,461.708 "/>
<polygon fill="none" stroke="#FFFFFF" stroke-width="0.215" stroke-miterlimit="22.926" points="352.451,460.748 354.194,467.752 
	388.27,461.708 "/>
<polygon fill-rule="evenodd" clip-rule="evenodd" fill="#FFFFFF" points="386.582,456.755 352.451,460.748 388.27,461.708 "/>
<polygon fill="none" stroke="#FFFFFF" stroke-width="0.215" stroke-miterlimit="22.926" points="386.582,456.755 352.451,460.748 
	388.27,461.708 "/>
<polygon fill-rule="evenodd" clip-rule="evenodd" fill="#FFFFFF" points="463.688,456.294 462.057,461.268 497.386,462.236 "/>
<polygon fill="none" stroke="#FFFFFF" stroke-width="0.215" stroke-miterlimit="22.926" points="463.688,456.294 462.057,461.268 
	497.386,462.236 "/>
<polygon fill-rule="evenodd" clip-rule="evenodd" fill="#FFFFFF" points="498.585,455.119 463.688,456.294 497.386,462.236 "/>
<polygon fill="none" stroke="#FFFFFF" stroke-width="0.215" stroke-miterlimit="22.926" points="498.585,455.119 463.688,456.294 
	497.386,462.236 "/>
<polygon fill-rule="evenodd" clip-rule="evenodd" fill="#FFFFFF" points="351.399,453.608 352.451,460.748 386.582,456.755 "/>
<polygon fill="none" stroke="#FFFFFF" stroke-width="0.215" stroke-miterlimit="22.926" points="351.399,453.608 352.451,460.748 
	386.582,456.755 "/>
<polygon fill-rule="evenodd" clip-rule="evenodd" fill="#FFFFFF" points="385.557,451.622 351.399,453.608 386.582,456.755 "/>
<polygon fill="none" stroke="#FFFFFF" stroke-width="0.215" stroke-miterlimit="22.926" points="385.557,451.622 351.399,453.608 
	386.582,456.755 "/>
<polygon fill-rule="evenodd" clip-rule="evenodd" fill="#FFFFFF" points="464.65,451.149 463.688,456.294 498.585,455.119 "/>
<polygon fill="none" stroke="#FFFFFF" stroke-width="0.215" stroke-miterlimit="22.926" points="464.65,451.149 463.688,456.294 
	498.585,455.119 "/>
<polygon fill-rule="evenodd" clip-rule="evenodd" fill="#FFFFFF" points="499.084,447.92 464.65,451.149 498.585,455.119 "/>
<polygon fill="none" stroke="#FFFFFF" stroke-width="0.215" stroke-miterlimit="22.926" points="499.084,447.92 464.65,451.149 
	498.585,455.119 "/>
<polygon fill-rule="evenodd" clip-rule="evenodd" fill="#FFFFFF" points="385.213,446.399 351.399,453.608 385.557,451.622 "/>
<polygon fill="none" stroke="#FFFFFF" stroke-width="0.215" stroke-miterlimit="22.926" points="385.213,446.399 351.399,453.608 
	385.557,451.622 "/>
<polygon fill-rule="evenodd" clip-rule="evenodd" fill="#FFFFFF" points="351.047,446.399 351.399,453.608 385.213,446.399 "/>
<polygon fill="none" stroke="#FFFFFF" stroke-width="0.215" stroke-miterlimit="22.926" points="351.047,446.399 351.399,453.608 
	385.213,446.399 "/>
<polygon fill-rule="evenodd" clip-rule="evenodd" fill="#FFFFFF" points="464.931,445.923 464.65,451.149 499.084,447.92 "/>
<polygon fill="none" stroke="#FFFFFF" stroke-width="0.215" stroke-miterlimit="22.926" points="464.931,445.923 464.65,451.149 
	499.084,447.92 "/>
<polygon fill-rule="evenodd" clip-rule="evenodd" fill="#FFFFFF" points="464.931,445.923 498.88,440.705 464.525,440.705 "/>
<polygon fill="none" stroke="#FFFFFF" stroke-width="0.215" stroke-miterlimit="22.926" points="464.931,445.923 498.88,440.705 
	464.525,440.705 "/>
<polygon fill-rule="evenodd" clip-rule="evenodd" fill="#FFFFFF" points="498.88,440.705 464.931,445.923 499.084,447.92 "/>
<polygon fill="none" stroke="#FFFFFF" stroke-width="0.215" stroke-miterlimit="22.926" points="498.88,440.705 464.931,445.923 
	499.084,447.92 "/>
<polygon fill-rule="evenodd" clip-rule="evenodd" fill="#FFFFFF" points="385.213,366.68 351.047,446.399 385.213,446.399 "/>
<polygon fill="none" stroke="#FFFFFF" stroke-width="0.215" stroke-miterlimit="22.926" points="385.213,366.68 351.047,446.399 
	385.213,446.399 "/>
<polygon fill-rule="evenodd" clip-rule="evenodd" fill="#FFFFFF" points="351.047,366.68 351.047,446.399 385.213,366.68 "/>
<polygon fill="none" stroke="#FFFFFF" stroke-width="0.215" stroke-miterlimit="22.926" points="351.047,366.68 351.047,446.399 
	385.213,366.68 "/>
<polygon fill-rule="evenodd" clip-rule="evenodd" fill="#FFFFFF" points="385.554,361.477 351.047,366.68 385.213,366.68 "/>
<polygon fill="none" stroke="#FFFFFF" stroke-width="0.215" stroke-miterlimit="22.926" points="385.554,361.477 351.047,366.68 
	385.213,366.68 "/>
<polygon fill-rule="evenodd" clip-rule="evenodd" fill="#FFFFFF" points="464.593,361.477 464.934,366.68 499.1,366.68 "/>
<polygon fill="none" stroke="#FFFFFF" stroke-width="0.215" stroke-miterlimit="22.926" points="464.593,361.477 464.934,366.68 
	499.1,366.68 "/>
<polygon fill-rule="evenodd" clip-rule="evenodd" fill="#FFFFFF" points="498.743,359.423 464.593,361.477 499.1,366.68 "/>
<polygon fill="none" stroke="#FFFFFF" stroke-width="0.215" stroke-miterlimit="22.926" points="498.743,359.423 464.593,361.477 
	499.1,366.68 "/>
<polygon fill-rule="evenodd" clip-rule="evenodd" fill="#FFFFFF" points="351.404,359.423 351.047,366.68 385.554,361.477 "/>
<polygon fill="none" stroke="#FFFFFF" stroke-width="0.215" stroke-miterlimit="22.926" points="351.404,359.423 351.047,366.68 
	385.554,361.477 "/>
<polygon fill-rule="evenodd" clip-rule="evenodd" fill="#FFFFFF" points="386.571,356.363 351.404,359.423 385.554,361.477 "/>
<polygon fill="none" stroke="#FFFFFF" stroke-width="0.215" stroke-miterlimit="22.926" points="386.571,356.363 351.404,359.423 
	385.554,361.477 "/>
<polygon fill-rule="evenodd" clip-rule="evenodd" fill="#FFFFFF" points="463.575,356.363 464.593,361.477 498.743,359.423 "/>
<polygon fill="none" stroke="#FFFFFF" stroke-width="0.215" stroke-miterlimit="22.926" points="463.575,356.363 464.593,361.477 
	498.743,359.423 "/>
<polygon fill-rule="evenodd" clip-rule="evenodd" fill="#FFFFFF" points="497.678,352.237 463.575,356.363 498.743,359.423 "/>
<polygon fill="none" stroke="#FFFFFF" stroke-width="0.215" stroke-miterlimit="22.926" points="497.678,352.237 463.575,356.363 
	498.743,359.423 "/>
<polygon fill-rule="evenodd" clip-rule="evenodd" fill="#FFFFFF" points="352.47,352.237 351.404,359.423 386.571,356.363 "/>
<polygon fill="none" stroke="#FFFFFF" stroke-width="0.215" stroke-miterlimit="22.926" points="352.47,352.237 351.404,359.423 
	386.571,356.363 "/>
<polygon fill-rule="evenodd" clip-rule="evenodd" fill="#FFFFFF" points="388.247,351.425 352.47,352.237 386.571,356.363 "/>
<polygon fill="none" stroke="#FFFFFF" stroke-width="0.215" stroke-miterlimit="22.926" points="388.247,351.425 352.47,352.237 
	386.571,356.363 "/>
<polygon fill-rule="evenodd" clip-rule="evenodd" fill="#FFFFFF" points="461.9,351.425 463.575,356.363 497.678,352.237 "/>
<polygon fill="none" stroke="#FFFFFF" stroke-width="0.215" stroke-miterlimit="22.926" points="461.9,351.425 463.575,356.363 
	497.678,352.237 "/>
<polygon fill-rule="evenodd" clip-rule="evenodd" fill="#FFFFFF" points="390.553,346.749 352.47,352.237 388.247,351.425 "/>
<polygon fill="none" stroke="#FFFFFF" stroke-width="0.215" stroke-miterlimit="22.926" points="390.553,346.749 352.47,352.237 
	388.247,351.425 "/>
<polygon fill-rule="evenodd" clip-rule="evenodd" fill="#FFFFFF" points="459.594,346.749 461.9,351.425 497.678,352.237 "/>
<polygon fill="none" stroke="#FFFFFF" stroke-width="0.215" stroke-miterlimit="22.926" points="459.594,346.749 461.9,351.425 
	497.678,352.237 "/>
<polygon fill-rule="evenodd" clip-rule="evenodd" fill="#FFFFFF" points="495.912,345.191 459.594,346.749 497.678,352.237 "/>
<polygon fill="none" stroke="#FFFFFF" stroke-width="0.215" stroke-miterlimit="22.926" points="495.912,345.191 459.594,346.749 
	497.678,352.237 "/>
<polygon fill-rule="evenodd" clip-rule="evenodd" fill="#FFFFFF" points="354.235,345.191 352.47,352.237 390.553,346.749 "/>
<polygon fill="none" stroke="#FFFFFF" stroke-width="0.215" stroke-miterlimit="22.926" points="354.235,345.191 352.47,352.237 
	390.553,346.749 "/>
<polygon fill-rule="evenodd" clip-rule="evenodd" fill="#FFFFFF" points="393.451,342.414 354.235,345.191 390.553,346.749 "/>
<polygon fill="none" stroke="#FFFFFF" stroke-width="0.215" stroke-miterlimit="22.926" points="393.451,342.414 354.235,345.191 
	390.553,346.749 "/>
<polygon fill-rule="evenodd" clip-rule="evenodd" fill="#FFFFFF" points="456.697,342.414 459.594,346.749 495.912,345.191 "/>
<polygon fill="none" stroke="#FFFFFF" stroke-width="0.215" stroke-miterlimit="22.926" points="456.697,342.414 459.594,346.749 
	495.912,345.191 "/>
<polygon fill-rule="evenodd" clip-rule="evenodd" fill="#FFFFFF" points="396.888,338.494 354.235,345.191 393.451,342.414 "/>
<polygon fill="none" stroke="#FFFFFF" stroke-width="0.215" stroke-miterlimit="22.926" points="396.888,338.494 354.235,345.191 
	393.451,342.414 "/>
<polygon fill-rule="evenodd" clip-rule="evenodd" fill="#FFFFFF" points="453.259,338.494 456.697,342.414 495.912,345.191 "/>
<polygon fill="none" stroke="#FFFFFF" stroke-width="0.215" stroke-miterlimit="22.926" points="453.259,338.494 456.697,342.414 
	495.912,345.191 "/>
<polygon fill-rule="evenodd" clip-rule="evenodd" fill="#FFFFFF" points="493.465,338.351 453.259,338.494 495.912,345.191 "/>
<polygon fill="none" stroke="#FFFFFF" stroke-width="0.215" stroke-miterlimit="22.926" points="493.465,338.351 453.259,338.494 
	495.912,345.191 "/>
<polygon fill-rule="evenodd" clip-rule="evenodd" fill="#FFFFFF" points="356.682,338.351 354.235,345.191 396.888,338.494 "/>
<polygon fill="none" stroke="#FFFFFF" stroke-width="0.215" stroke-miterlimit="22.926" points="356.682,338.351 354.235,345.191 
	396.888,338.494 "/>
<polygon fill-rule="evenodd" clip-rule="evenodd" fill="#FFFFFF" points="400.808,335.056 356.682,338.351 396.888,338.494 "/>
<polygon fill="none" stroke="#FFFFFF" stroke-width="0.215" stroke-miterlimit="22.926" points="400.808,335.056 356.682,338.351 
	396.888,338.494 "/>
<polygon fill-rule="evenodd" clip-rule="evenodd" fill="#FFFFFF" points="449.339,335.056 453.259,338.494 493.465,338.351 "/>
<polygon fill="none" stroke="#FFFFFF" stroke-width="0.215" stroke-miterlimit="22.926" points="449.339,335.056 453.259,338.494 
	493.465,338.351 "/>
<polygon fill-rule="evenodd" clip-rule="evenodd" fill="#FFFFFF" points="405.143,332.159 356.682,338.351 400.808,335.056 "/>
<polygon fill="none" stroke="#FFFFFF" stroke-width="0.215" stroke-miterlimit="22.926" points="405.143,332.159 356.682,338.351 
	400.808,335.056 "/>
<polygon fill-rule="evenodd" clip-rule="evenodd" fill="#FFFFFF" points="445.004,332.159 449.339,335.056 493.465,338.351 "/>
<polygon fill="none" stroke="#FFFFFF" stroke-width="0.215" stroke-miterlimit="22.926" points="445.004,332.159 449.339,335.056 
	493.465,338.351 "/>
<polygon fill-rule="evenodd" clip-rule="evenodd" fill="#FFFFFF" points="490.359,331.784 445.004,332.159 493.465,338.351 "/>
<polygon fill="none" stroke="#FFFFFF" stroke-width="0.215" stroke-miterlimit="22.926" points="490.359,331.784 445.004,332.159 
	493.465,338.351 "/>
<polygon fill-rule="evenodd" clip-rule="evenodd" fill="#FFFFFF" points="359.788,331.784 356.682,338.351 405.143,332.159 "/>
<polygon fill="none" stroke="#FFFFFF" stroke-width="0.215" stroke-miterlimit="22.926" points="359.788,331.784 356.682,338.351 
	405.143,332.159 "/>
<polygon fill-rule="evenodd" clip-rule="evenodd" fill="#FFFFFF" points="409.82,329.853 359.788,331.784 405.143,332.159 "/>
<polygon fill="none" stroke="#FFFFFF" stroke-width="0.215" stroke-miterlimit="22.926" points="409.82,329.853 359.788,331.784 
	405.143,332.159 "/>
<polygon fill-rule="evenodd" clip-rule="evenodd" fill="#FFFFFF" points="440.327,329.853 445.004,332.159 490.359,331.784 "/>
<polygon fill="none" stroke="#FFFFFF" stroke-width="0.215" stroke-miterlimit="22.926" points="440.327,329.853 445.004,332.159 
	490.359,331.784 "/>
<polygon fill-rule="evenodd" clip-rule="evenodd" fill="#FFFFFF" points="414.757,328.177 359.788,331.784 409.82,329.853 "/>
<polygon fill="none" stroke="#FFFFFF" stroke-width="0.215" stroke-miterlimit="22.926" points="414.757,328.177 359.788,331.784 
	409.82,329.853 "/>
<polygon fill-rule="evenodd" clip-rule="evenodd" fill="#FFFFFF" points="435.39,328.177 440.327,329.853 490.359,331.784 "/>
<polygon fill="none" stroke="#FFFFFF" stroke-width="0.215" stroke-miterlimit="22.926" points="435.39,328.177 440.327,329.853 
	490.359,331.784 "/>
<polygon fill-rule="evenodd" clip-rule="evenodd" fill="#FFFFFF" points="419.871,327.16 359.788,331.784 414.757,328.177 "/>
<polygon fill="none" stroke="#FFFFFF" stroke-width="0.215" stroke-miterlimit="22.926" points="419.871,327.16 359.788,331.784 
	414.757,328.177 "/>
<polygon fill-rule="evenodd" clip-rule="evenodd" fill="#FFFFFF" points="430.276,327.16 435.39,328.177 490.359,331.784 "/>
<polygon fill="none" stroke="#FFFFFF" stroke-width="0.215" stroke-miterlimit="22.926" points="430.276,327.16 435.39,328.177 
	490.359,331.784 "/>
<polygon fill-rule="evenodd" clip-rule="evenodd" fill="#FFFFFF" points="486.624,325.553 425.074,326.819 430.276,327.16 "/>
<polygon fill="none" stroke="#FFFFFF" stroke-width="0.215" stroke-miterlimit="22.926" points="486.624,325.553 425.074,326.819 
	430.276,327.16 "/>
<polygon fill-rule="evenodd" clip-rule="evenodd" fill="#FFFFFF" points="486.624,325.553 430.276,327.16 490.359,331.784 "/>
<polygon fill="none" stroke="#FFFFFF" stroke-width="0.215" stroke-miterlimit="22.926" points="486.624,325.553 430.276,327.16 
	490.359,331.784 "/>
<polygon fill-rule="evenodd" clip-rule="evenodd" fill="#FFFFFF" points="363.523,325.553 425.074,326.819 486.624,325.553 "/>
<polygon fill="none" stroke="#FFFFFF" stroke-width="0.215" stroke-miterlimit="22.926" points="363.523,325.553 425.074,326.819 
	486.624,325.553 "/>
<polygon fill-rule="evenodd" clip-rule="evenodd" fill="#FFFFFF" points="363.523,325.553 419.871,327.16 425.074,326.819 "/>
<polygon fill="none" stroke="#FFFFFF" stroke-width="0.215" stroke-miterlimit="22.926" points="363.523,325.553 419.871,327.16 
	425.074,326.819 "/>
<polygon fill-rule="evenodd" clip-rule="evenodd" fill="#FFFFFF" points="363.523,325.553 359.788,331.784 419.871,327.16 "/>
<polygon fill="none" stroke="#FFFFFF" stroke-width="0.215" stroke-miterlimit="22.926" points="363.523,325.553 359.788,331.784 
	419.871,327.16 "/>
<polygon fill-rule="evenodd" clip-rule="evenodd" fill="#FFFFFF" points="482.297,319.718 363.523,325.553 486.624,325.553 "/>
<polygon fill="none" stroke="#FFFFFF" stroke-width="0.215" stroke-miterlimit="22.926" points="482.297,319.718 363.523,325.553 
	486.624,325.553 "/>
<polygon fill-rule="evenodd" clip-rule="evenodd" fill="#FFFFFF" points="367.851,319.718 363.523,325.553 482.297,319.718 "/>
<polygon fill="none" stroke="#FFFFFF" stroke-width="0.215" stroke-miterlimit="22.926" points="367.851,319.718 363.523,325.553 
	482.297,319.718 "/>
<polygon fill-rule="evenodd" clip-rule="evenodd" fill="#FFFFFF" points="477.418,314.335 367.851,319.718 482.297,319.718 "/>
<polygon fill="none" stroke="#FFFFFF" stroke-width="0.215" stroke-miterlimit="22.926" points="477.418,314.335 367.851,319.718 
	482.297,319.718 "/>
<polygon fill-rule="evenodd" clip-rule="evenodd" fill="#FFFFFF" points="372.729,314.335 367.851,319.718 477.418,314.335 "/>
<polygon fill="none" stroke="#FFFFFF" stroke-width="0.215" stroke-miterlimit="22.926" points="372.729,314.335 367.851,319.718 
	477.418,314.335 "/>
<polygon fill-rule="evenodd" clip-rule="evenodd" fill="#FFFFFF" points="472.035,309.456 372.729,314.335 477.418,314.335 "/>
<polygon fill="none" stroke="#FFFFFF" stroke-width="0.215" stroke-miterlimit="22.926" points="472.035,309.456 372.729,314.335 
	477.418,314.335 "/>
<polygon fill-rule="evenodd" clip-rule="evenodd" fill="#FFFFFF" points="378.112,309.456 372.729,314.335 472.035,309.456 "/>
<polygon fill="none" stroke="#FFFFFF" stroke-width="0.215" stroke-miterlimit="22.926" points="378.112,309.456 372.729,314.335 
	472.035,309.456 "/>
<polygon fill-rule="evenodd" clip-rule="evenodd" fill="#FFFFFF" points="466.201,305.129 378.112,309.456 472.035,309.456 "/>
<polygon fill="none" stroke="#FFFFFF" stroke-width="0.215" stroke-miterlimit="22.926" points="466.201,305.129 378.112,309.456 
	472.035,309.456 "/>
<polygon fill-rule="evenodd" clip-rule="evenodd" fill="#FFFFFF" points="383.947,305.129 378.112,309.456 466.201,305.129 "/>
<polygon fill="none" stroke="#FFFFFF" stroke-width="0.215" stroke-miterlimit="22.926" points="383.947,305.129 378.112,309.456 
	466.201,305.129 "/>
<polygon fill-rule="evenodd" clip-rule="evenodd" fill="#FFFFFF" points="459.969,301.394 383.947,305.129 466.201,305.129 "/>
<polygon fill="none" stroke="#FFFFFF" stroke-width="0.215" stroke-miterlimit="22.926" points="459.969,301.394 383.947,305.129 
	466.201,305.129 "/>
<polygon fill-rule="evenodd" clip-rule="evenodd" fill="#FFFFFF" points="390.178,301.394 383.947,305.129 459.969,301.394 "/>
<polygon fill="none" stroke="#FFFFFF" stroke-width="0.215" stroke-miterlimit="22.926" points="390.178,301.394 383.947,305.129 
	459.969,301.394 "/>
<polygon fill-rule="evenodd" clip-rule="evenodd" fill="#FFFFFF" points="453.402,298.288 390.178,301.394 459.969,301.394 "/>
<polygon fill="none" stroke="#FFFFFF" stroke-width="0.215" stroke-miterlimit="22.926" points="453.402,298.288 390.178,301.394 
	459.969,301.394 "/>
<polygon fill-rule="evenodd" clip-rule="evenodd" fill="#FFFFFF" points="396.745,298.288 390.178,301.394 453.402,298.288 "/>
<polygon fill="none" stroke="#FFFFFF" stroke-width="0.215" stroke-miterlimit="22.926" points="396.745,298.288 390.178,301.394 
	453.402,298.288 "/>
<polygon fill-rule="evenodd" clip-rule="evenodd" fill="#FFFFFF" points="446.563,295.841 396.745,298.288 453.402,298.288 "/>
<polygon fill="none" stroke="#FFFFFF" stroke-width="0.215" stroke-miterlimit="22.926" points="446.563,295.841 396.745,298.288 
	453.402,298.288 "/>
<polygon fill-rule="evenodd" clip-rule="evenodd" fill="#FFFFFF" points="403.585,295.841 396.745,298.288 446.563,295.841 "/>
<polygon fill="none" stroke="#FFFFFF" stroke-width="0.215" stroke-miterlimit="22.926" points="403.585,295.841 396.745,298.288 
	446.563,295.841 "/>
<polygon fill-rule="evenodd" clip-rule="evenodd" fill="#FFFFFF" points="439.516,294.075 403.585,295.841 446.563,295.841 "/>
<polygon fill="none" stroke="#FFFFFF" stroke-width="0.215" stroke-miterlimit="22.926" points="439.516,294.075 403.585,295.841 
	446.563,295.841 "/>
<polygon fill-rule="evenodd" clip-rule="evenodd" fill="#FFFFFF" points="410.632,294.075 403.585,295.841 439.516,294.075 "/>
<polygon fill="none" stroke="#FFFFFF" stroke-width="0.215" stroke-miterlimit="22.926" points="410.632,294.075 403.585,295.841 
	439.516,294.075 "/>
<polygon fill-rule="evenodd" clip-rule="evenodd" fill="#FFFFFF" points="432.329,293.01 410.632,294.075 439.516,294.075 "/>
<polygon fill="none" stroke="#FFFFFF" stroke-width="0.215" stroke-miterlimit="22.926" points="432.329,293.01 410.632,294.075 
	439.516,294.075 "/>
<polygon fill-rule="evenodd" clip-rule="evenodd" fill="#FFFFFF" points="417.818,293.01 410.632,294.075 432.329,293.01 "/>
<polygon fill="none" stroke="#FFFFFF" stroke-width="0.215" stroke-miterlimit="22.926" points="417.818,293.01 410.632,294.075 
	432.329,293.01 "/>
<polygon fill-rule="evenodd" clip-rule="evenodd" fill="#FFFFFF" points="425.074,292.653 417.818,293.01 432.329,293.01 "/>
<polygon fill="none" stroke="#FFFFFF" stroke-width="0.215" stroke-miterlimit="22.926" points="425.074,292.653 417.818,293.01 
	432.329,293.01 "/>
<polygon fill-rule="evenodd" clip-rule="evenodd" fill="#FFFFFF" points="257.014,433.41 239.663,520.426 274.364,520.426 "/>
<polygon fill="none" stroke="#FFFFFF" stroke-width="0.215" stroke-miterlimit="22.926" points="257.014,433.41 239.663,520.426 
	274.364,520.426 "/>
<polygon fill-rule="evenodd" clip-rule="evenodd" fill="#FFFFFF" points="166.474,433.365 149.089,520.426 183.86,520.426 "/>
<polygon fill="none" stroke="#FFFFFF" stroke-width="0.215" stroke-miterlimit="22.926" points="166.474,433.365 149.089,520.426 
	183.86,520.426 "/>
<polygon fill-rule="evenodd" clip-rule="evenodd" fill="#FFFFFF" points="211.762,380.919 166.474,433.365 183.86,520.426 "/>
<polygon fill="none" stroke="#FFFFFF" stroke-width="0.215" stroke-miterlimit="22.926" points="211.762,380.919 166.474,433.365 
	183.86,520.426 "/>
<polygon fill-rule="evenodd" clip-rule="evenodd" fill="#FFFFFF" points="211.762,380.919 239.663,520.426 257.014,433.41 "/>
<polygon fill="none" stroke="#FFFFFF" stroke-width="0.215" stroke-miterlimit="22.926" points="211.762,380.919 239.663,520.426 
	257.014,433.41 "/>
<polygon fill-rule="evenodd" clip-rule="evenodd" fill="#FFFFFF" points="319.918,292.653 257.014,433.41 274.364,520.426 "/>
<polygon fill="none" stroke="#FFFFFF" stroke-width="0.215" stroke-miterlimit="22.926" points="319.918,292.653 257.014,433.41 
	274.364,520.426 "/>
<polygon fill-rule="evenodd" clip-rule="evenodd" fill="#FFFFFF" points="285.08,292.653 257.014,433.41 319.918,292.653 "/>
<polygon fill="none" stroke="#FFFFFF" stroke-width="0.215" stroke-miterlimit="22.926" points="285.08,292.653 257.014,433.41 
	319.918,292.653 "/>
<polygon fill-rule="evenodd" clip-rule="evenodd" fill="#FFFFFF" points="194.574,292.653 166.474,433.365 211.762,380.919 "/>
<polygon fill="none" stroke="#FFFFFF" stroke-width="0.215" stroke-miterlimit="22.926" points="194.574,292.653 166.474,433.365 
	211.762,380.919 "/>
<polygon fill-rule="evenodd" clip-rule="evenodd" fill="#FFFFFF" points="211.762,380.919 228.947,292.653 194.574,292.653 "/>
<polygon fill="none" stroke="#FFFFFF" stroke-width="0.215" stroke-miterlimit="22.926" points="211.762,380.919 228.947,292.653 
	194.574,292.653 "/>
<polygon fill-rule="evenodd" clip-rule="evenodd" fill="#FFFFFF" points="228.947,292.653 211.762,380.919 257.014,433.41 "/>
<polygon fill="none" stroke="#FFFFFF" stroke-width="0.215" stroke-miterlimit="22.926" points="228.947,292.653 211.762,380.919 
	257.014,433.41 "/>
<polygon fill-rule="evenodd" clip-rule="evenodd" fill="#FFFFFF" points="166.474,433.365 138.375,292.653 103.534,292.653 "/>
<polygon fill="none" stroke="#FFFFFF" stroke-width="0.215" stroke-miterlimit="22.926" points="166.474,433.365 138.375,292.653 
	103.534,292.653 "/>
<polygon fill-rule="evenodd" clip-rule="evenodd" fill="#FFFFFF" points="103.534,292.653 149.089,520.426 166.474,433.365 "/>
<polygon fill="none" stroke="#FFFFFF" stroke-width="0.215" stroke-miterlimit="22.926" points="103.534,292.653 149.089,520.426 
	166.474,433.365 "/>
</svg>
