<?xml version="1.0" encoding="utf-8"?>
<!-- Generator: Adobe Illustrator 25.2.1, SVG Export Plug-In . SVG Version: 6.00 Build 0)  -->
<svg version="1.1" xmlns="http://www.w3.org/2000/svg" xmlns:xlink="http://www.w3.org/1999/xlink" x="0px" y="0px"
	 viewBox="0 0 24 24" style="enable-background:new 0 0 24 24;" xml:space="preserve">
<style type="text/css">
	.st0{display:none;}
	.st1{display:inline;}
	.st2{display:inline;fill:none;}
	.st3{fill:none;}
	.st4{fill:#25AA00;}
	.st5{fill:#D80000;}
	.st6{display:inline;fill:#0066D6;}
	.st7{fill:#D3C300;}
</style>
<g id="Layer_1">
	<g id="Layer_1_2_">
		<g id="Layer_1_1_" class="st0">
			<path class="st1" d="M20.5,4.7c-3.4-1.9-7.6-0.8-9.6,2.6C8.3,11.8,10.5,22,10.5,22s9.9-3.2,12.6-7.8C25,10.9,23.8,6.6,20.5,4.7z
				 M15.7,12.9c-1.2-0.7-1.6-2.2-0.9-3.4c0.7-1.2,2.2-1.6,3.4-0.9s1.6,2.2,0.9,3.4S16.9,13.6,15.7,12.9z"/>
			<path class="st2" d="M0,0h24v24H0V0z"/>
		</g>
		<g id="Layer_2_1_">
			<g>
				<path d="M10.1,22.3C9.8,22,3,14.3,3,9c0-4.2,3.3-7.5,7.5-7.5S18,4.8,18,9c0,5.3-6.8,13-7.1,13.3l-0.4,0.4L10.1,22.3z M10.5,7
					c-1.1,0-2,0.9-2,2s0.9,2,2,2s2-0.9,2-2S11.6,7,10.5,7z"/>
			</g>
			<path class="st3" d="M0,0h25.6v24H0V0z"/>
		</g>
	</g>
	<g id="Green">
		<g id="Layer_2_2_">
			<g>
				<path class="st4" d="M10.5,2c-3.9,0-7,3.1-7,7c0,5.2,7,13,7,13s7-7.8,7-13C17.5,5.1,14.4,2,10.5,2z M10.5,11.5
					C9.1,11.5,8,10.4,8,9s1.1-2.5,2.5-2.5S13,7.6,13,9S11.9,11.5,10.5,11.5z"/>
			</g>
			<path class="st3" d="M0,0h25.6v24H0V0z"/>
		</g>
	</g>
	<g id="Red">
		<g id="Layer_2_4_">
			<g>
				<path class="st5" d="M10.5,2c-3.9,0-7,3.1-7,7c0,5.2,7,13,7,13s7-7.8,7-13C17.5,5.1,14.4,2,10.5,2z M10.5,11.5
					C9.1,11.5,8,10.4,8,9s1.1-2.5,2.5-2.5S13,7.6,13,9S11.9,11.5,10.5,11.5z"/>
			</g>
			<path class="st3" d="M0,0h25.6v24H0V0z"/>
		</g>
	</g>
	<g id="Orange">
		<g id="Layer_2_3_">
			<g>
				<path d="M10.5,2c-3.9,0-7,3.1-7,7c0,5.2,7,13,7,13s7-7.8,7-13C17.5,5.1,14.4,2,10.5,2z M10.5,11.5C9.1,11.5,8,10.4,8,9
					s1.1-2.5,2.5-2.5S13,7.6,13,9S11.9,11.5,10.5,11.5z"/>
			</g>
			<path class="st3" d="M0,0h25.6v24H0V0z"/>
		</g>
	</g>
</g>
<g id="Layer_2" class="st0">
	<path class="st6" d="M10.5,2c-3.9,0-7,3.1-7,7c0,5.2,7,13,7,13s7-7.8,7-13C17.5,5.1,14.4,2,10.5,2z M10.5,11.5C9.1,11.5,8,10.4,8,9
		s1.1-2.5,2.5-2.5S13,7.6,13,9S11.9,11.5,10.5,11.5z"/>
</g>
<g id="Layer_2_copy">
	<path class="st7" d="M10.5,2c-3.9,0-7,3.1-7,7c0,5.2,7,13,7,13s7-7.8,7-13C17.5,5.1,14.4,2,10.5,2z M10.5,11.5C9.1,11.5,8,10.4,8,9
		s1.1-2.5,2.5-2.5S13,7.6,13,9S11.9,11.5,10.5,11.5z"/>
</g>
</svg>
